<svg xmlns="http://www.w3.org/2000/svg" viewBox="0 0 839.98 841.96" fill="white">
    <g id="Layer_2" data-name="Layer 2">
        <g id="Layer_1-2" data-name="Layer 1">
            <path
                d="M514.17,421.59c-.32,43.6-30.91,83.33-72.83,92.92-33,7.56-61.9-1.43-86.31-24.69a92.43,92.43,0,0,1-28.29-55.66c-3.69-26.87,3.84-51,20.26-72.24,14.46-18.75,33.45-30.77,56.77-35.27,24-4.62,46.17.59,66.26,14.1,23.49,15.79,37.54,38,42.45,65.85C513.35,411.54,513.62,416.59,514.17,421.59Z" />
            <path
                d="M320.19,237.4c-.33,43.59-30.92,83.32-72.84,92.91-33,7.56-61.9-1.43-86.3-24.69A92.39,92.39,0,0,1,132.75,250c-3.69-26.87,3.85-51,20.26-72.24C167.47,159,186.46,147,209.78,142.46c24-4.63,46.17.59,66.26,14.09,23.49,15.79,37.55,38,42.45,65.85C319.36,227.35,319.64,232.4,320.19,237.4Z" />
            <path
                d="M708.16,237.4c-.32,43.59-30.91,83.32-72.83,92.91-33.05,7.56-61.9-1.43-86.31-24.69A92.37,92.37,0,0,1,520.73,250C517,223.1,524.57,199,541,177.73,555.45,159,574.44,147,597.76,142.46c24-4.63,46.16.59,66.25,14.09,23.5,15.79,37.55,38,42.46,65.85C707.34,227.35,707.61,232.4,708.16,237.4Z" />
            <path
                d="M320.19,605.62c-.33,43.6-30.92,83.33-72.84,92.92-33,7.55-61.9-1.43-86.3-24.7a92.36,92.36,0,0,1-28.3-55.65c-3.69-26.87,3.85-51,20.26-72.24,14.46-18.75,33.45-30.77,56.77-35.27,24-4.62,46.17.59,66.26,14.09,23.49,15.8,37.55,38,42.45,65.85C319.36,595.57,319.64,600.62,320.19,605.62Z" />
            <path
                d="M708.16,605.62c-.32,43.6-30.91,83.33-72.83,92.92-33.05,7.55-61.9-1.43-86.31-24.7a92.35,92.35,0,0,1-28.29-55.65c-3.69-26.87,3.84-51,20.25-72.24,14.47-18.75,33.46-30.77,56.78-35.27,24-4.62,46.16.59,66.25,14.09,23.5,15.8,37.55,38,42.46,65.85C707.34,595.57,707.61,600.62,708.16,605.62Z" />
            <path
                d="M0,421.73q0-172,.08-344C.19,42,24.68,6,68.24.79A103.4,103.4,0,0,1,80.67.05Q419.37,0,758.08,0c38.22,0,69.58,23,79.15,58.54a74.7,74.7,0,0,1,2.64,19.15q.2,343.7.11,687.41c0,34.92-27.42,68.24-61.82,74.66a120.4,120.4,0,0,1-21.75,2.09Q417.7,842,79,841.76c-35.54,0-66.36-20.3-76.31-56.39A67.94,67.94,0,0,1,.14,767.68Q-.09,594.7,0,421.73ZM418.94,797H660.41c32.33,0,64.66.15,97-.07A38.78,38.78,0,0,0,796.16,758q-.46-336-.19-671.92c0-23.36-17.74-41.22-40.93-41.22H86.13C60.53,44.89,44,61.4,44,86.94q0,334.47-.15,668.92c0,20.64,14.41,41.49,41.15,41.38C196.3,796.77,307.62,797,418.94,797Z" />
        </g>
    </g>
</svg>