<svg xmlns="http://www.w3.org/2000/svg" viewBox="0 0 839.98 841.96" fill="white">
    <g id="Layer_2" data-name="Layer 2">
        <g id="Layer_1-2" data-name="Layer 1">
            <path
                d="M0,421.73q0-172,.08-344C.19,42,24.68,6,68.24.79A103.4,103.4,0,0,1,80.67.05Q419.37,0,758.08,0c38.22,0,69.58,23,79.15,58.54a74.7,74.7,0,0,1,2.64,19.15q.2,343.7.11,687.41c0,34.92-27.42,68.24-61.82,74.66a120.4,120.4,0,0,1-21.75,2.09Q417.7,842,79,841.76c-35.54,0-66.36-20.3-76.31-56.39A67.94,67.94,0,0,1,.14,767.68Q-.09,594.7,0,421.73ZM418.94,797H660.41c32.33,0,64.66.15,97-.07A38.78,38.78,0,0,0,796.16,758q-.46-336-.19-671.92c0-23.36-17.74-41.22-40.93-41.22H86.13C60.53,44.89,44,61.4,44,86.94q0,334.47-.15,668.92c0,20.64,14.41,41.49,41.15,41.38C196.3,796.77,307.62,797,418.94,797Z" />
            <path
                d="M522.83,243.2c-.35,47.6-33.75,91-79.53,101.46-36.08,8.25-67.59-1.56-94.24-27-17.39-16.57-27.64-37.09-30.9-60.77-4-29.34,4.2-55.65,22.12-78.88,15.8-20.48,36.54-33.6,62-38.51,26.16-5.05,50.41.64,72.35,15.39,25.65,17.24,41,41.46,46.35,71.9C521.93,232.22,522.23,237.74,522.83,243.2Z" />
            <path
                d="M522.83,580.27c-.35,47.6-33.75,91-79.53,101.46-36.08,8.25-67.59-1.56-94.24-27-17.39-16.57-27.64-37.09-30.9-60.77-4-29.34,4.2-55.65,22.12-78.88,15.8-20.48,36.54-33.6,62-38.51,26.16-5.05,50.41.64,72.35,15.39,25.65,17.24,41,41.46,46.35,71.9C521.93,569.29,522.23,574.81,522.83,580.27Z" />
        </g>
    </g>
</svg>