<svg xmlns="http://www.w3.org/2000/svg" viewBox="0 0 839.98 841.96" fill="white">
    <g id="Layer_2" data-name="Layer 2">
        <g id="Layer_1-2" data-name="Layer 1">
            <path
                d="M514.17,174.27c-.32,43.6-30.91,83.33-72.83,92.92-33,7.55-61.9-1.43-86.31-24.7a92.4,92.4,0,0,1-28.29-55.65c-3.69-26.87,3.84-51,20.26-72.24,14.46-18.75,33.45-30.77,56.77-35.27,24-4.62,46.17.59,66.26,14.09,23.49,15.8,37.54,38,42.45,65.85C513.35,164.22,513.62,169.27,514.17,174.27Z" />
            <path
                d="M514.17,426.31c-.32,43.6-30.91,83.33-72.83,92.92-33,7.56-61.9-1.43-86.31-24.69a92.43,92.43,0,0,1-28.29-55.66c-3.69-26.87,3.84-51,20.26-72.24,14.46-18.75,33.45-30.77,56.77-35.26,24-4.63,46.17.58,66.26,14.09,23.49,15.79,37.54,38,42.45,65.85C513.35,416.26,513.62,421.31,514.17,426.31Z" />
            <path
                d="M514.17,678.36c-.32,43.59-30.91,83.33-72.83,92.91-33,7.56-61.9-1.42-86.31-24.69a92.43,92.43,0,0,1-28.29-55.65c-3.69-26.87,3.84-51,20.26-72.24,14.46-18.76,33.45-30.77,56.77-35.27,24-4.62,46.17.59,66.26,14.09,23.49,15.79,37.54,38,42.45,65.85C513.35,668.31,513.62,673.36,514.17,678.36Z" />
            <path
                d="M0,421.73q0-172,.08-344C.19,42,24.68,6,68.24.79A103.4,103.4,0,0,1,80.67.05Q419.37,0,758.08,0c38.22,0,69.58,23,79.15,58.54a74.7,74.7,0,0,1,2.64,19.15q.2,343.7.11,687.41c0,34.92-27.42,68.24-61.82,74.66a120.4,120.4,0,0,1-21.75,2.09Q417.7,842,79,841.76c-35.54,0-66.36-20.3-76.31-56.39A67.94,67.94,0,0,1,.14,767.68Q-.09,594.7,0,421.73ZM418.94,797H660.41c32.33,0,64.66.15,97-.07A38.78,38.78,0,0,0,796.16,758q-.46-336-.19-671.92c0-23.36-17.74-41.22-40.93-41.22H86.13C60.53,44.89,44,61.4,44,86.94q0,334.47-.15,668.92c0,20.64,14.41,41.49,41.15,41.38C196.3,796.77,307.62,797,418.94,797Z" />
        </g>
    </g>
</svg>