<svg xmlns="http://www.w3.org/2000/svg" viewBox="0 0 839.98 841.96" fill="white">
    <g id="Layer_2" data-name="Layer 2">
        <g id="Layer_1-2" data-name="Layer 1">
            <path
                d="M0,421.73q0-172,.08-344C.19,42,24.68,6,68.24.79A103.4,103.4,0,0,1,80.67.05Q419.37,0,758.08,0c38.22,0,69.58,23,79.15,58.54a74.7,74.7,0,0,1,2.64,19.15q.2,343.7.11,687.41c0,34.92-27.42,68.24-61.82,74.66a120.4,120.4,0,0,1-21.75,2.09Q417.7,842,79,841.76c-35.54,0-66.36-20.3-76.31-56.39A67.94,67.94,0,0,1,.14,767.68Q-.09,594.7,0,421.73ZM418.94,797H660.41c32.33,0,64.66.15,97-.07A38.78,38.78,0,0,0,796.16,758q-.46-336-.19-671.92c0-23.36-17.74-41.22-40.93-41.22H86.13C60.53,44.89,44,61.4,44,86.94q0,334.47-.15,668.92c0,20.64,14.41,41.49,41.15,41.38C196.3,796.77,307.62,797,418.94,797Z" />
            <path
                d="M569.72,422.57c-.5,69-48.89,131.8-115.19,147-52.27,12-97.91-2.25-136.51-39-25.19-24-40-53.73-44.75-88-5.84-42.51,6.08-80.61,32-114.26,22.88-29.67,52.91-48.67,89.79-55.79,37.9-7.31,73,.94,104.8,22.29,37.16,25,59.39,60.06,67.14,104.16C568.42,406.68,568.85,414.66,569.72,422.57Z" />
        </g>
    </g>
</svg>