<svg xmlns="http://www.w3.org/2000/svg" viewBox="0 0 839.98 841.96" fill="white">
    <g id="Layer_2" data-name="Layer 2">
        <g id="Layer_1-2" data-name="Layer 1">
            <path
                d="M335.32,187.87c-.32,43.59-30.91,83.33-72.83,92.91-33.05,7.56-61.9-1.42-86.31-24.69a92.32,92.32,0,0,1-28.29-55.65c-3.7-26.87,3.84-51,20.25-72.24,14.47-18.76,33.46-30.77,56.77-35.27,24-4.62,46.17.59,66.26,14.09,23.5,15.79,37.55,38,42.46,65.85C334.5,177.82,334.77,182.87,335.32,187.87Z" />
            <path
                d="M671,187.87c-.32,43.59-30.91,83.33-72.83,92.91-33,7.56-61.9-1.42-86.31-24.69a92.43,92.43,0,0,1-28.29-55.65c-3.69-26.87,3.84-51,20.26-72.24,14.46-18.76,33.45-30.77,56.77-35.27,24-4.62,46.17.59,66.26,14.09,23.49,15.79,37.55,38,42.45,65.85C670.19,177.82,670.46,182.87,671,187.87Z" />
            <path
                d="M335.32,421.51c-.32,43.59-30.91,83.33-72.83,92.91-33.05,7.56-61.9-1.42-86.31-24.69a92.32,92.32,0,0,1-28.29-55.65c-3.7-26.87,3.84-51,20.25-72.24,14.47-18.76,33.46-30.77,56.77-35.27,24-4.62,46.17.59,66.26,14.09,23.5,15.79,37.55,38,42.46,65.85C334.5,411.46,334.77,416.51,335.32,421.51Z" />
            <path
                d="M671,421.51c-.32,43.59-30.91,83.33-72.83,92.91-33,7.56-61.9-1.42-86.31-24.69a92.43,92.43,0,0,1-28.29-55.65c-3.69-26.87,3.84-51,20.26-72.24,14.46-18.76,33.45-30.77,56.77-35.27,24-4.62,46.17.59,66.26,14.09,23.49,15.79,37.55,38,42.45,65.85C670.19,411.46,670.46,416.51,671,421.51Z" />
            <path
                d="M335.32,662.52c-.32,43.59-30.91,83.32-72.83,92.91-33.05,7.56-61.9-1.42-86.31-24.69a92.32,92.32,0,0,1-28.29-55.65c-3.7-26.87,3.84-51,20.25-72.24,14.47-18.76,33.46-30.77,56.77-35.27,24-4.62,46.17.59,66.26,14.09,23.5,15.79,37.55,38,42.46,65.85C334.5,652.47,334.77,657.52,335.32,662.52Z" />
            <path
                d="M671,662.52c-.32,43.59-30.91,83.32-72.83,92.91-33,7.56-61.9-1.42-86.31-24.69a92.43,92.43,0,0,1-28.29-55.65c-3.69-26.87,3.84-51,20.26-72.24,14.46-18.76,33.45-30.77,56.77-35.27,24-4.62,46.17.59,66.26,14.09,23.49,15.79,37.55,38,42.45,65.85C670.19,652.47,670.46,657.52,671,662.52Z" />
            <path
                d="M0,421.73q0-172,.08-344C.19,42,24.68,6,68.24.79A103.4,103.4,0,0,1,80.67.05Q419.37,0,758.08,0c38.22,0,69.58,23,79.15,58.54a74.7,74.7,0,0,1,2.64,19.15q.2,343.7.11,687.41c0,34.92-27.42,68.24-61.82,74.66a120.4,120.4,0,0,1-21.75,2.09Q417.7,842,79,841.76c-35.54,0-66.36-20.3-76.31-56.39A67.94,67.94,0,0,1,.14,767.68Q-.09,594.7,0,421.73ZM418.94,797H660.41c32.33,0,64.66.15,97-.07A38.78,38.78,0,0,0,796.16,758q-.46-336-.19-671.92c0-23.36-17.74-41.22-40.93-41.22H86.13C60.53,44.89,44,61.4,44,86.94q0,334.47-.15,668.92c0,20.64,14.41,41.49,41.15,41.38C196.3,796.77,307.62,797,418.94,797Z" />
        </g>
    </g>
</svg>