<svg xmlns="http://www.w3.org/2000/svg" viewBox="0 0 819.41 150.48">
    <defs>
        <style>.cls-1{fill:#FFA500;}</style>
    </defs>
    <g id="Layer_2" data-name="Layer 2">
        <g id="Layer_1-2" data-name="Layer 1">
            <path class="cls-1"
                d="M21.66,48.36V117.6a.94.94,0,0,1-.94.94H.94A.94.94,0,0,1,0,117.6V1A.94.94,0,0,1,.94.06c9,0,18-.14,27,.18,1.26,0,3,2.29,3.56,3.86C39.33,25.33,47,46.64,54.81,67.91c1.78,4.87,3.65,9.7,5.69,15a.94.94,0,0,0,1.76,0c4.94-13.12,9.66-25.67,14.4-38.21C81.93,30.8,87.18,16.86,92.54,3,93,1.83,94.27.2,95.19.18,104.33,0,113.48.05,123,.06a1,1,0,0,1,1,.93V117.65a.94.94,0,0,1-.94.94H101.92a.94.94,0,0,1-.94-.94V47.22l-2.65-.49c-4.85,12.58-9.72,25.15-14.51,37.75-3.83,10-7.61,20.11-11.24,30.23-1.1,3.05-2.55,4.59-6.09,4.26-4.13-.38-8.34.12-12.48-.21-1.42-.11-3.52-1.29-4-2.49C41.43,93.55,33,70.75,24.56,48l0-.08Z" />
            <path class="cls-1"
                d="M306.35,1.52a.94.94,0,0,1,.83-1.39c8.43,0,16.36-.15,24.27.16,1.45.05,3.29,1.93,4.13,3.42,7,12.37,13.82,24.83,20.89,37.64a.94.94,0,0,0,1.64,0c3.2-5.66,6.27-11.13,9.39-16.58,4.13-7.2,8.15-14.47,12.58-21.48A7.64,7.64,0,0,1,385.33.2c7.13-.32,14.28-.17,22.48-.14a.94.94,0,0,1,.8,1.45L372.22,58.32a1,1,0,0,0,0,1l35.91,58.09a.94.94,0,0,1-.8,1.44c-8.77,0-17,.12-25.15-.16-1.27,0-2.82-2-3.65-3.38-7.19-12.09-14.25-24.26-21.4-36.51a.94.94,0,0,0-1.62,0c-7.13,12-14.3,23.85-21.18,35.86-1.92,3.36-4.15,4.49-7.94,4.32-6.5-.3-13-.12-20.32-.09a1,1,0,0,1-.82-1.42c.76-1.32,1.38-2.42,2.05-3.48,10.66-17,21.24-34,32.08-50.92,1.89-3,1.86-5,0-7.9C328.9,38.45,318.58,21.62,308.22,4.81,307.59,3.81,307,2.77,306.35,1.52Z" />
            <path class="cls-1"
                d="M441.76,115.16v34.38a.94.94,0,0,1-.94.94H419.27a.94.94,0,0,1-.94-.94V37.31a.94.94,0,0,1,.94-.94h19.36a.94.94,0,0,1,.94.94V43a.93.93,0,0,0,1.68.56c7.91-10.6,19.05-11.82,30.52-10.39,12.89,1.61,22.14,9.11,27.32,21.24,6.53,15.25,6.39,30.67.5,46-9.29,24.11-40.65,30-56.22,14.18A.93.93,0,0,0,441.76,115.16Zm19.64-63.3c-10.63,0-16.68,4.4-18.49,14.85a74.35,74.35,0,0,0-.77,19.76c1,10.25,7.44,16.07,16.54,16.55,11.34.6,17.94-3.56,19.95-14.8a69.34,69.34,0,0,0-.07-23C477.09,56.22,470.39,51.85,461.4,51.86Z" />
            <path class="cls-1"
                d="M650.55,93.81a1,1,0,0,1,.92,1.2c-3.68,13.1-11.05,22.19-24.22,26.09-18,5.33-34.35,3-47.2-11.61-9.91-11.24-11.33-25.21-9.81-39.46,1.23-11.56,5.35-22,15.07-29.2,13.8-10.21,29.14-10.52,44.44-4.79,13.67,5.12,20.4,16.33,22.13,30.57.58,4.79.83,9.62,1.24,15a.94.94,0,0,1-.93,1H594.92a.94.94,0,0,0-.94.9c-.24,9.17,4.4,16.58,11.82,19.35,8.75,3.27,18.05,1.08,23.38-6a6.55,6.55,0,0,1,6.13-3C640.24,93.9,645.18,93.82,650.55,93.81ZM628.67,67.63a1,1,0,0,0,1-1c-.33-9.06-6.71-15.51-15.85-16.18-10.61-.78-17.51,4.85-19.52,16a1,1,0,0,0,.93,1.1Z" />
            <path class="cls-1"
                d="M200.81,118.67H178.73a.94.94,0,0,1-.94-.94V37.33a.94.94,0,0,1,.94-.94H199.6a.94.94,0,0,1,.94.89c.08,1.6.17,3.24.26,5.16a.94.94,0,0,0,1.69.52c4.1-5.31,9-8.52,15.42-9.56,19.14-3.11,36.23,5.22,38.56,26.58,1.83,16.81.93,33.91,1.23,50.88,0,2.18,0,4.36,0,6.76a.94.94,0,0,1-.94.94H234.91a.93.93,0,0,1-.93-.86c-.09-1.07-.19-2.18-.2-3.3,0-15,.11-30-.08-45-.16-13.55-11.26-20.32-23.38-14.36-6.95,3.42-8.36,10-8.49,16.82-.25,13.33-.08,26.66-.08,40v5.86A1,1,0,0,1,200.81,118.67Z" />
            <path class="cls-1"
                d="M734.82,60.89a1,1,0,0,1-1,1c-6.22,0-11.89.16-17.54-.14-1.25-.06-2.9-1.69-3.53-3-4.23-8.76-16.19-11.87-24.16-6.11-4.23,3.06-4.14,9.42.75,11.19,7.09,2.57,14.57,4,21.9,6,2.24.58,4.54.91,6.75,1.55,9.79,2.84,16.89,8.42,18.75,19,2,11.4-2.4,20.12-11.68,26.53-13.85,9.58-37.6,9-51.21-1.06-6.68-4.94-9.27-9.41-10.8-19.48a.94.94,0,0,1,.93-1.08c5.81,0,11.55-.11,17.28.12,1,0,2.47,1.51,2.94,2.64,3.84,9.17,20.71,10.17,27.13,4.29,4.23-3.87,3.39-10.51-2.17-12.39-6.69-2.25-13.85-3.07-20.61-5.16-5.45-1.69-11.35-3.36-15.76-6.73-13.08-10-11.8-29,2-38.64,13.34-9.34,36.31-9,49.29.93C730.74,45.39,734.08,52.2,734.82,60.89Z" />
            <path class="cls-1"
                d="M745.94,96.3a1,1,0,0,1,.95-.93c5.76,0,11.27-.15,16.77.11A6.09,6.09,0,0,1,767.77,98a18.56,18.56,0,0,0,25,5.62c3-1.83,5.17-4.54,3.86-7.8-1-2.56-3.45-5.62-5.88-6.36-7.9-2.39-16.15-3.59-24.16-5.64-13.84-3.54-21.28-13-20.76-26,.45-11,8.88-20.4,21.66-23.54A51.5,51.5,0,0,1,796,35C807.86,38.87,815.8,49.27,815.62,61a1,1,0,0,1-.94.92c-5.61,0-11.25.11-16.88-.13-1,0-2.48-1.59-2.75-2.68-2.62-10.52-17.8-11.1-24.76-5.87a6.5,6.5,0,0,0,2,11.49c6.84,2.31,14.06,3.52,21.12,5.19,7.94,1.88,16,3.64,21.29,10.66,8.31,11,5.46,26.5-6.67,35.59-14.78,11.09-42.53,10.19-55.58-4.07A23.42,23.42,0,0,1,745.94,96.3Z" />
            <path class="cls-1"
                d="M514.92,117.6V37.32a.94.94,0,0,1,.94-.94h19.25a.93.93,0,0,1,.93.89c.1,1.77.19,3.55.26,5a1,1,0,0,0,1.55.67c3.39-2.88,7-6.57,11.38-8.34,4.82-1.94,10.53-1.67,16.25-2.23a.94.94,0,0,1,1,.93V52.58a.94.94,0,0,1-1,.93c-1.78-.18-3.51-.4-5.25-.48-14.19-.69-22.13,6.91-22.35,21.74-.2,12.66-.06,25.32-.07,38v4.84a.94.94,0,0,1-.94.94h-21A.94.94,0,0,1,514.92,117.6Z" />
            <rect class="cls-1" x="271.07" y="36.22" width="23.37" height="82.41" rx="0.94" />
            <rect class="cls-1" x="137.91" y="36.29" width="22.7" height="82.23" rx="0.94" />
        </g>
    </g>
</svg>