<svg xmlns="http://www.w3.org/2000/svg" viewBox="0 0 543.69 563.8"><g id="Layer_2" data-name="Layer 2"><g id="Layer_1-2" data-name="Layer 1"><path d="M89.18,494.43c-10.33,0-20,.09-29.61,0A59.66,59.66,0,0,1,1.81,448.9,58.82,58.82,0,0,1,.25,435.08c-.1-78.32.3-156.64-.25-235-.25-35.91,26.2-65.74,65.13-65.4,66.49.58,133,.1,199.47.18,29,0,58-.22,87,.7,26.08.83,51.11,23.46,54.36,49.47,1.89,15.11,1.37,30.55,1.4,45.85.11,66.65-.38,133.31.16,200,.3,35.54-27.88,63.55-64.46,63.56q-73.74,0-147.47-.06a13.59,13.59,0,0,0-9.43,3.42c-24.91,20.8-50,41.41-75,62.14-4.67,3.88-9.78,5.08-15.26,2.46-5.26-2.51-6.77-7.3-6.75-12.87C89.22,531.39,89.18,513.26,89.18,494.43Zm165.22-80c-.55-1.95-.85-3.38-1.34-4.74q-34-94.5-68-189c-.84-2.32-1.94-3.31-4.59-3.27-11.49.16-23,.06-34.48.06-8.6,0-8.63,0-11.46,8.17Q105.62,309,76.72,392.38l-7.61,21.86h42.72c3.47-11.65,7-23.05,10.23-34.53.85-3,2-4.27,5.38-4.25q34,.23,68,0c3.09,0,4.34,1,5.17,3.91,3,10.69,6.24,21.31,9.57,31.91.39,1.23,1.93,3,3,3C226.73,414.49,240.33,414.42,254.4,414.42ZM281,217.62V414.16h41.7V217.62Z"/><path d="M509.4,66.63c26,38.74,36.44,77.32,33.92,119.38a46.13,46.13,0,0,1-2.08,11.68c-1.61,4.88-7.15,7.39-12.36,6.32s-8.88-5.26-8.62-10.53c.37-7.5,1.56-15,1.64-22.47.26-22.27-5.2-43.31-14.28-63.55a151.43,151.43,0,0,0-22.87-36.55c-17.45-20.47-38.68-35.72-64.1-44.81-4.85-1.74-9.89-3-14.88-4.26C396.69,19.5,393.4,10,399.54,3.4c3.28-3.55,7.6-4.08,11.92-2.69,9.81,3.17,19.76,6.08,29.2,10.14a161.42,161.42,0,0,1,54,38.2C500.93,55.7,506.42,63,509.4,66.63Z"/><path d="M475.65,102.12c13.7,21.09,23.34,48.28,21.47,78.79a54.64,54.64,0,0,1-1.86,11.74c-1.23,4.22-6.11,6.9-10.74,6.69-5.13-.24-8.84-2.9-10-7.51a11.58,11.58,0,0,1-.21-4.76c3.16-19,0-37.29-7.17-54.88-12.33-30.26-33.78-51.3-64.73-62.3-3.74-1.33-7.7-2-11.5-3.21A10.6,10.6,0,0,1,383.11,58,10.42,10.42,0,0,1,387,47.36c3.39-2.66,7.3-3,11.32-2.06C418.47,50.1,436,60,451.43,73.67,459.58,80.89,466.77,89,475.65,102.12Z"/><path d="M437,128a86.67,86.67,0,0,1,14.12,53.71c-.35,4.89-2.38,8.77-6.94,10.78A10.42,10.42,0,0,1,433,191.13c-3.51-2.76-4.2-6.59-3.72-10.72,3.23-28.11-15.54-57.59-42.42-66.55-1.83-.61-3.73-1-5.58-1.61-5.8-1.76-9.27-7.17-8.05-12.49a11,11,0,0,1,13.24-8.36,71.68,71.68,0,0,1,23.86,10.22C420.46,108.09,429,116.34,437,128Z"/><path d="M184,339.29H134.81c2.51-8.27,4.94-16.15,7.29-24.06,4.41-14.77,8.7-29.57,13.27-44.29a5.51,5.51,0,0,1,3.85-3.22c1.4-.11,3.92,1.28,4.31,2.53,7,22.46,13.82,45,20.64,67.52A6,6,0,0,1,184,339.29Z"/></g></g></svg>