<svg xmlns="http://www.w3.org/2000/svg" viewBox="0 0 671.7 609.02"><g id="Layer_2" data-name="Layer 2"><g id="Layer_1-2" data-name="Layer 1"><path d="M417.81,504.77l-90.05-60.36,217.56-350,59.11,39.46c17,11.34,34.32,22.24,50.92,34.15,13.67,9.81,16.4,22.34,7.8,36.86-18.79,31.72-38.31,63-57.53,94.47-4.93,8.06-9.71,16.21-14.78,24.17-7.78,12.2-16.53,13.8-28.14,5.26-2.91-2.14-5.53-4.67-8.9-7.54,14.55-23.39,28.79-46.37,43.13-69.28q14.33-22.87,28.91-45.59c9.39-14.68,9.43-14.65-8.51-23.23Z"/><path d="M425.45,230.18V203.74c0-43.44.08-86.89,0-130.33C425.34,50.24,410,34.87,387,34.86q-157.86-.07-315.72,0c-21.43,0-36.9,15.39-36.83,37.05Q35.14,283,36.1,494c.13,26.8,17.58,43.8,44.45,43.84q84.9.09,169.79,0h13.71v33H255q-91.3,0-182.63,0c-38,0-70.7-31.41-70.91-69.42Q.3,289,0,76.53C0,65.68.62,54.28,3.91,44.08,13,15.91,37,0,67.69,0q163.37,0,326.73,0a56.82,56.82,0,0,1,11.76,1.32c32.09,6.86,53.89,33.37,54,65.9.15,34,.31,67.92-.15,101.87a38.72,38.72,0,0,1-5.05,18c-8.58,14.95-18.16,29.33-27.35,43.93Z"/><path d="M284.12,363.34c-13,0-24.27.3-35.53-.25-2.38-.11-5.76-2.87-6.7-5.21-3.62-9-6.09-18.5-9.81-27.47-1-2.47-4.92-5.26-7.55-5.31q-33-.66-66,0c-2.85.06-7,3.09-8.2,5.79-3.8,8.59-6.63,17.62-9.52,26.58-1.4,4.35-3.47,6.22-8.43,6-10.92-.48-21.87-.15-33.82-.15,8.17-22.22,16.06-43.54,23.86-64.9,14.7-40.23,29.51-80.42,43.86-120.78,2.33-6.56,5.38-9.31,12.41-8.72a111.23,111.23,0,0,0,22,0c9.55-1.1,13.84,2.71,17,11.64,19.93,55.85,40.44,111.49,60.76,167.19C280.2,352.55,282,357.35,284.12,363.34Zm-63.47-71.48c-9.73-27.79-19.1-54.59-29.32-83.81-10.2,29.43-19.57,56.44-29.06,83.81Z"/><path d="M559,77.37c10.9-24.82,26.57-42.62,54.86-44.24,21.74-1.24,43.37,12.08,52,31,13,28.5,2.52,51.92-16.24,74.77-15.19-10.23-30.29-20.37-45.34-30.58C589.45,98.19,574.63,88,559,77.37Z"/><path d="M312.47,169.48h34.9V362.64h-34.9Z"/><path d="M320.31,465.84l79,54.69c-35.88,30-70.93,59.23-106,88.49l-1.77-1.39Z"/></g></g></svg>