<svg xmlns="http://www.w3.org/2000/svg" viewBox="0 0 759.57 749.9">
    <g id="Layer_2" data-name="Layer 2">
        <g id="Layer_1-2" data-name="Layer 1">
            <path
                d="M519.3,0,394.48,313.69l134.06,34L187.93,749.9c51-111.48,105.18-221,157.44-331.69L214.28,384.67C218.38,374.63,508.24,7.94,519.3,0Z" />
            <path
                d="M484.85,146.77c3.74-8.82,7.39-17.42,11.17-26.3,15.83,4.28,31.15,8.45,46.48,12.58q77.58,20.88,155.16,41.79c12,3.25,24.44,5.72,35.53,11,21.7,10.28,30.66,32.08,24.44,55.19q-27.92,103.74-55.94,207.45-25.8,95.81-51.54,191.63c-1.72,6.41-3.64,12.77-5.28,19.2-6.85,26.82-33.22,40.22-60.67,32.93q-107.43-28.51-214.89-56.89c-15.83-4.2-31.63-8.53-48.06-13,6.85-7.49,13.1-14.82,20-21.48,1.43-1.38,5.38-.92,7.91-.28q52.77,13.53,105.47,27.4,67.83,17.82,135.62,35.8c13.76,3.63,24.41-2.11,28.31-16.14,10.51-37.86,20.69-75.8,31-113.73q18.53-68.37,37-136.77,21.16-78.74,42.21-157.51c4.48-16.72-1.23-26.37-18-31q-111.78-30.47-223.55-61A24.16,24.16,0,0,1,484.85,146.77Z" />
            <path
                d="M365.81,152.47c-4-17.25-7.84-34-11.64-50.75-2.5-11.06-15.27-19.44-27.24-16.21-46.09,12.41-92.34,24.25-138.56,36.23-47.67,12.36-95.38,24.58-143,37-11.93,3.11-17.68,11.62-15.28,23.52,4.47,22.12,9.49,44.12,14.37,66.15Q62.72,331,81.12,413.52,98.71,492.2,116.57,570.8c1.83,8.1,3.43,16.25,5.62,24.25,3.77,13.78,13.57,19.11,27.43,15.73,30.25-7.39,60.54-14.63,92-22.21-3.6,7.71-7.34,14.43-9.92,21.58-2.93,8.14-8.07,11.8-16.59,13.57-21.74,4.51-43.23,10.22-64.86,15.31-25.57,6-49.39-9.09-55.16-34.6C84.26,556.55,73.2,508.72,62.47,460.81Q38.11,352.08,14.06,243.27C9.77,224,5.07,204.8,1.12,185.46c-5.35-26.19,8.78-48,34.82-54.67Q144.07,102.92,252.21,75c21.51-5.56,43-11.29,64.48-16.92,33.19-8.7,60.12,8.4,66.34,42,1.39,7.51,2.94,15,4.77,22.4,1,3.94.4,6.8-2.63,9.76C378.64,138.63,372.5,145.43,365.81,152.47Z" />
            <path
                d="M556.44,277.45c19.2,34.82,38.26,68.89,56.82,103.22,9.12,16.86,11.54,34.84,5.92,53.51-9.45,31.38-49.8,45.93-76.18,27-5.71-4.08-9.84-10.36-14.38-15.28-7.5,24.31,6,45.27,14.42,67.8L463.28,492.2c14.19-19,34.66-32.51,43.88-54.88-11.38,8.68-23.64,12.58-38.41,9.11,6.58-7.51,12.85-14.54,19-21.68C507.8,401.4,528,378.14,547.81,354.6c9.74-11.56,5.82-24.23-8.63-28.73-11.94-3.72-24-7-37.48-10.9Z" />
            <path
                d="M246.61,453.33c-19.63-14.43-39.13-28-57.78-42.72A485.89,485.89,0,0,1,148,374.75c-13.89-13.73-24.15-30.15-27.41-49.86-5-30.16,11.59-55.19,35.91-61.48,19.23-5,35.29,1.18,48.87,15,1,1,2,2.16,3,3.31,22-47.78,60.76-42,79.84-21.31-5.6,7.07-11.24,14.21-16.9,21.33q-35.73,44.89-71.44,89.81c-9.68,12.24-5.22,25.95,9.91,30.24,18.94,5.37,38,10.31,57.56,15.59C260.51,429.28,253.82,440.86,246.61,453.33Z" />
        </g>
    </g>
</svg>