<svg xmlns="http://www.w3.org/2000/svg" viewBox="0 0 420.81 437.96">
    <g id="Layer_2" data-name="Layer 2">
        <g id="Layer_1-2" data-name="Layer 1">
            <path
                d="M254.12,107.27c0-9.17.23-18.34-.09-27.5-.16-4.76,2-7.74,5.7-9.9C276.6,60.12,293.41,50.26,310.52,41c2.65-1.45,7.43-1.58,10-.14q26.4,14.5,52.16,30.19a11.6,11.6,0,0,1,4.66,8.31q.6,27.8-.05,55.6a12.46,12.46,0,0,1-4.85,8.82c-17.11,10.91-34.45,21.51-52.06,31.59-2.88,1.65-8.33,1.65-11.2,0-16.55-9.5-32.66-19.77-49-29.66-4.45-2.69-6.42-6.17-6.2-11.52C254.38,125.21,254.12,116.23,254.12,107.27Zm87.66-20.59c-.14-.75-.27-1.5-.4-2.25-7.78-4.72-15.53-9.49-23.37-14.11a4,4,0,0,0-3.37-.17c-8.16,4.77-16.23,9.71-26,15.63,9.84,5.44,18.08,10,26.36,14.49a3.5,3.5,0,0,0,2.84.26C325.86,96,333.81,91.32,341.78,86.68Z" />
            <path
                d="M110.73,380.64c-32.72-.06-57-24.18-57-56.51,0-31.24,26.23-57.2,57.82-57.31s59.1,26.66,59.11,57.51C170.65,356.11,144.49,380.7,110.73,380.64Zm1.89-83.23c-13.67-.29-25,11.12-25.15,25.45-.2,13.63,9.94,24.31,23.41,24.66,13.63.36,25.52-10.55,25.83-23.7C137.05,309.39,126.4,297.71,112.62,297.41Z" />
            <path
                d="M420.8,219.5q0,93.24,0,186.48c0,18.47-13.57,32-32.21,32H32.14C13.34,438,0,424.89,0,406Q0,219.47.08,33c0-20.26,13-33,33.22-33q177.48,0,355,0c18.58,0,32.53,14,32.53,32.49Q420.84,126,420.8,219.5ZM220.2,417.73c1.14.09,2.11.23,3.08.23q81.22,0,162.46,0c8.31,0,13.11-5.12,13.11-13.49q0-84.74,0-169.47v-5.48H220.2ZM20.82,229.44V236q0,83.22,0,166.44c0,11.52,4,15.54,15.56,15.54l156.94,0h5.21V229.44ZM220.27,21.94v186.8H398.86v-4.59q0-84,0-167.93c0-9.87-4.44-14.28-14.26-14.28H220.27Zm-21.75,186.8V21.93H35.3c-9.63,0-14.51,5-14.51,14.8q0,83.71,0,167.44c0,1.45.13,2.89.2,4.56Z" />
            <path
                d="M171.25,108.23c-.05,34.31-27.13,61-61.76,60.91s-61.46-27-61.43-61.33c0-33.32,28.14-60.6,62.43-60.59A61,61,0,0,1,171.25,108.23Zm-21,.44c.44-21.92-17.49-40.19-39.91-40.64s-40.95,17.1-41.28,39.12c-.35,22.64,17.07,41.63,38.57,42.07C131.57,149.72,149.81,132.36,150.28,108.67Z" />
            <path
                d="M309,285.3c3-4.45,5.61-8.73,8.67-12.62,9.59-12.2,26.4-17.27,40.81-12.53a38.69,38.69,0,0,1,26.37,34.24c.93,13.22-3.42,24.56-11.16,34.84-14.15,18.77-32,33.82-49.73,49-3.66,3.14-7.54,6-11.18,9.2-2.57,2.25-4.82,2.28-7.49.14C284.3,370.76,263.87,353.4,247,332.33c-10.3-12.9-15.59-27.4-11.51-44.18,3.9-16,15.84-27.2,31.47-29.49,14.33-2.1,30.28,6.09,38.21,19.66C306.46,280.47,307.57,282.71,309,285.3Z" />
        </g>
    </g>
</svg>