<svg xmlns="http://www.w3.org/2000/svg" viewBox="0 0 695.04 610.25"><g id="Layer_2" data-name="Layer 2"><g id="Layer_1-2" data-name="Layer 1"><path d="M159.88,130.77c67.2,2.84,116.18,33.88,145.51,94.89,11.83,24.61,16.36,50.87,14.65,78-2.74,43.21-21.15,79.1-52.46,108.6-22.31,21-48.36,35.27-78.66,40.41-47.77,8.09-90.75-3.8-128.32-34.06C32.48,396,14,366.8,5,331.58c-17.24-67.14,11.51-139.53,70.2-176.37C97.17,141.4,128.77,130.48,159.88,130.77Zm9,256.66c1.61-.12,3-.21,4.45-.33,18.28-1.52,33.68-8.73,44.88-23.53,15.09-19.93,17.34-55.12-16.32-70.22-9.34-4.18-19.35-6.84-29-10.33-10.88-3.93-22.12-7.16-32.41-12.28-8.9-4.43-13.55-13-12-23.29s7.68-17.76,18-20.37a65.24,65.24,0,0,1,18.2-1.9c14.53.55,26,10.43,29.6,24.54.45,1.74,1,3.45,1.68,5.65l30.5-6.14c-2.91-14.48-8.13-27.13-19.35-36.58s-24.49-12.47-38.92-12.92c6.31-10,6.54-14.87,1.24-20.13a13.91,13.91,0,0,0-17-1.59c-6.41,3.92-7,8.55-2.5,21.71l-2.43.29c-16.47,1.81-31.12,7.33-41.14,21.34C89.61,244.77,92.68,277.9,120,292.22c7.12,3.73,15,6.07,22.61,8.81,12.3,4.42,25,8,36.92,13.18,9.18,4,15,11.68,14.61,22.43s-6.31,18-15.8,22.32c-18,8.17-49.44,4.44-56-26.57-9.26,1.22-18.62,2.34-27.91,3.84-.89.14-2.18,2.78-2,4,3.84,23.51,20.83,40.91,44.6,45.86,4.29.89,8.62,1.55,13,2.33-4.35,8.15-3.8,15,1.39,19.22a13.57,13.57,0,0,0,17.41.08C174.51,403,174.56,397.77,168.87,387.43Z"/><path d="M385.8,318.34c-.24-88.69,76.64-158.14,158-156.08C632.36,164.5,696.17,236.73,695,317.72c-1.27,89.75-70.83,159.77-165.93,154.12C448.17,467,385.2,399.69,385.8,318.34ZM555.94,327H495.21c0-6.52-.17-12.49.16-18.44.06-1,2.16-2.69,3.42-2.79,4.64-.36,9.32-.2,14-.21H560c1.51-7.18,3-14.11,4.52-21.57H499.18c4.53-17.54,13.52-31,30.12-37.73,23.16-9.34,44.18-4.5,62.9,11.76,3.56-5.2,6.67-10.51,10.56-15.18,3.43-4.12,2-6.28-1.53-9.13-16.08-12.76-34.43-18.09-54.75-17.73-27.39.47-49.36,11.41-64.22,34.54-5.48,8.52-8.81,18.48-12.69,28-1.15,2.81-2.32,3.92-5.29,3.85-6.16-.14-12.33-.12-18.49.17-1.49.07-4,1.19-4.22,2.21-1.26,6.23-2,12.56-3,19.45h25.77c-.51,7.17-1,13.87-1.5,21.14h-26c.77,8.3,1.48,16,2.21,23.78,7.82,0,14.84.43,21.78-.14,5.2-.42,7.19,1.45,8.46,6.29,4,15.16,11,28.88,21.9,40.25,23.05,24.06,56.55,30,88,16a78.76,78.76,0,0,0,27.16-20.15c-4.63-7.24-9-14-13.4-20.91-17.39,20.06-40.76,26.68-62.33,18.11C515,382.25,502,363.19,501.82,349h49.31C552.72,341.74,554.25,334.7,555.94,327Z"/><path d="M507.46,89A269.42,269.42,0,0,0,394.18,43.25a278,278,0,0,0-73.13-1.53c-47.34,5-90,21.94-128.61,49.37-5,3.56-9.68,7.61-14.41,11.55-10.56,8.81-21.77,4.11-28.46-3-4.95-5.23-4.72-14.29.15-20.73,9.25-12.23,21-21.73,33.66-30.19C217.25,26.05,254.66,12.25,294.62,5A286.38,286.38,0,0,1,356.17.16c59.52,2.06,115,17.27,164.16,52,4.19,3,8.25,6.07,12.76,9.4,7.34-8.5,14.42-16.85,21.69-25,2.4-2.7,4.93-5.66,8-7.25,7-3.57,14.58.13,16.31,7.76q10.1,44.59,19.84,89.26c1.87,8.56-3.51,15.07-12.3,14.58-13.77-.76-27.51-2.1-41.25-3.27s-27.47-2.4-41.2-3.69c-4.62-.43-9.33-.66-13.79-1.81-9.07-2.32-12.23-10.54-6.52-18.07,5.31-7,11.64-13.23,17.62-19.71C503.21,92.54,505.22,91,507.46,89Z"/><path d="M170.45,555c-7.83,9.34-15.61,18.44-23.16,27.72-3.65,4.49-8,7.28-13.79,6.07s-9.47-5.28-10.65-11.23q-4.83-24.37-9.56-48.78-3.32-17.08-6.48-34.2a33.85,33.85,0,0,1-.56-5.94c0-7.82,3.86-12,11.57-11.66,10.46.52,20.89,1.58,31.32,2.51,16.72,1.49,33.45,3,50.15,4.66,5.25.52,10.63,1.06,15.62,2.64,8.49,2.69,11.22,11.31,5.7,18.32-5.86,7.44-12.48,14.27-19.29,22,10,5.45,19.78,11.2,29.93,16.27a265.1,265.1,0,0,0,82.33,25.47c57,7.93,111.09-1.76,162.17-28.34,19-9.88,36.59-21.62,52.18-36.37,7.4-7,14.24-6.69,21.37.41,7.49,7.47,11.17,18.37.35,28.72-36.29,34.73-79.1,57.09-127.75,68.83a307,307,0,0,1-86.14,7.85c-57.52-2.57-111.31-17.34-159.19-50.5C174.65,558.08,172.79,556.68,170.45,555Z"/></g></g></svg>