<svg xmlns="http://www.w3.org/2000/svg" viewBox="0 0 363.81 394.89">
    <g id="Layer_2" data-name="Layer 2">
        <g id="Layer_1-2" data-name="Layer 1">
            <path
                d="M149.73,143.55H319c7.7,0,15.41-.05,23.12,0,14.1.11,21.64,7.76,21.67,22.11q.09,42.95,0,85.9,0,56.15-.05,112.31c0,19.37-11.24,30.9-30.58,30.92q-151.13.17-302.25,0C10.73,394.79.23,384.43.18,364.44Q-.08,233.54,0,102.64C0,89,5.22,82.77,18.47,79.34Q167.86,40.65,317.25,1.9c18.83-4.88,25.62-.87,30.09,18,3.79,16,8,31.87,11.63,47.9,2.85,12.63-1.07,19.37-13.57,22.79-19.53,5.35-39.23,10-58.82,15.11Q220.24,122.94,154,140.36a39.91,39.91,0,0,0-4.39,1.72C149.62,142.57,149.67,143.06,149.73,143.55Zm32.45,107.81H318.37c3.58,0,7.73,1,10.58-.53,3.34-1.73,5.55-5.64,8.25-8.61-2.81-2.55-5.38-5.51-8.55-7.49-1.6-1-4.3-.25-6.5-.25H192.56q-75.93,0-151.87,0c-6.2,0-11.57,1.67-11.92,8.48-.38,7.46,5.45,8.46,11.44,8.34,2.2,0,4.4.08,6.6.08Q114.51,251.34,182.18,251.36ZM71.7,88.32c12.26,13.82,24,27.12,35.88,40.32a4.22,4.22,0,0,0,3.52,1c13.06-3.49,26.07-7.15,39.92-11-12.4-13.56-24-26.35-35.82-38.92-1-1.09-3.84-1.2-5.59-.79C97.23,81.88,84.91,85,71.7,88.32Zm163,9c-12.44-13.76-24.15-26.75-35.93-39.68A3.66,3.66,0,0,0,196,56.39c-12.72,3.1-25.41,6.35-38.9,9.77,12.12,13.41,23.11,25.67,34.26,37.78,1.34,1.46,3.82,3.32,5.31,3C209.06,104.06,221.35,100.74,234.73,97.29ZM317.1,75.7c0-1,.24-1.72,0-2C306.15,61.75,295.22,49.81,284.16,38c-1-1.06-3-2.08-4.3-1.81-12.25,2.62-24.44,5.51-37.84,8.6C254,58.35,264.44,70.38,275.27,82c1.57,1.69,5.39,2.51,7.8,2C294.53,81.56,305.86,78.5,317.1,75.7Zm-57,136.55c14,0,26.25.26,38.46-.24,2.32-.09,5.2-2.78,6.64-5,6.47-10.12,12.57-20.48,18.71-30.81,2-3.3,3.61-6.79,6-11.24-13.61,0-25.41-.08-37.2.09-1.65,0-4.05.77-4.82,2C278.72,181.51,269.87,196.16,260.06,212.25ZM241.41,164.9c-14.12,0-26.19-.07-38.26.08-1.72,0-4.25.61-5,1.82C189,181.6,180.07,196.57,170.79,212c12.92,0,24.68.12,36.43-.11,2.15,0,5.24-.9,6.25-2.45C222.64,195.28,231.45,180.89,241.41,164.9ZM86.68,212c12.32,0,23.17.12,34-.13,1.53,0,3.56-1.53,4.44-2.93,9.12-14.49,18-29.11,27.75-44.87-11.86,0-22.49-.13-33.1.13-1.87,0-4.48,1.21-5.42,2.69C105.25,181.35,96.43,196,86.68,212Zm-37.41-46.8c11.15,0,17.47-8.34,12-18a91.49,91.49,0,0,0-18.56-22.53c-6.79-6.06-16.46-2.09-19,6.4C19.65,145,34.72,165.13,49.27,165.18Z" />
        </g>
    </g>
</svg>