<svg xmlns="http://www.w3.org/2000/svg" viewBox="0 0 439.81 391.95"><g id="Layer_2" data-name="Layer 2"><g id="Layer_1-2" data-name="Layer 1"><path d="M186.93,128.72h16.63c0-10.08.07-19.87,0-29.66-.16-17.4,5.15-32.72,17.49-45.18,11.28-11.39,25.21-16.6,41.16-17.17,7.07-.25,14.33-.58,21.11-2.37,8.19-2.15,13.93-8.09,17.46-15.92,1.43-3.17,2.76-6.38,4.27-9.51,3.38-7,9.4-10.15,16.08-8.46s10.26,6.76,9.69,14.77c-1.12,16-9.22,28.14-21.55,37.7C298.49,61.27,286,64.48,272.53,64.83c-5.79.15-11.75.15-17.32,1.49-13.12,3.15-22.66,15.07-23.49,29.51-.61,10.76-.12,21.6-.12,32.8h15.5c3.62-9.55,4.4-10.08,14.88-10.07,20.66,0,41.33.13,62,.1,39.63,0,72.26,23.84,84.36,61.72,6.95,21.73,11.94,44.11,17.07,66.38,4.83,21,9.16,42.1,12.8,63.31,3.34,19.42,2.08,38.49-9.34,55.61-21.1,31.64-68.09,35.31-93.23,6.69-13.14-15-24.78-31.24-37.38-46.7-7.83-9.62-18.07-14.9-30.72-14.9-30.83,0-61.67.44-92.48-.18-16.73-.34-28.89,6.27-38.72,19.3-10.62,14.05-21.29,28.14-33,41.27-15.12,17-34.61,24.4-57,19.11-22.92-5.4-37.4-20.88-43.58-43.41C-1.84,330.32,0,313.49,3.64,297c7.81-34.89,15.56-69.81,24-104.55,4.2-17.23,11.87-33.08,24.2-46.26,13.92-14.88,31.1-24.48,51.24-26.09,22.18-1.76,44.56-1.07,66.86-1.44,1.67,0,3.33,0,5,0C182.85,118.71,185.17,120.6,186.93,128.72ZM132.72,255.89h0c0-3.33,0-6.66,0-10,0-6.14,2.48-9,8.54-9.27,5.16-.21,10.33,0,15.49.06,8.26,0,11.63-3.21,11.73-11.34,0-3.33.1-6.67-.06-10-.32-6.82-3.19-9.52-10-9.58-4.67,0-9.33,0-14,0-8.75,0-11.78-3-11.82-11.6,0-4.66.06-9.33-.08-14-.18-5.65-3.4-9.05-8.93-9.33a118.45,118.45,0,0,0-12.5,0c-6.33.34-9.54,3.91-9.59,10.32,0,4.33.08,8.66,0,13-.22,7.7-4.2,11.57-11.82,11.61-5.17,0-10.33-.11-15.5,0-5.45.14-8.33,2.92-8.56,8.31-.19,4.5-.16,9,0,13.5.13,4.71,2.18,8.09,7.32,8.37,6.14.34,12.29.37,18.44.59,7.19.25,10.19,3.31,10.25,10.53.06,6.49-.14,13,.06,19.49.2,6.69,3.26,9.77,9.83,10.11a112.91,112.91,0,0,0,11.49,0c6-.29,9.41-3.7,9.73-9.81C132.87,263.23,132.72,259.56,132.72,255.89Zm210.14,3.85c0-9.89-9.11-19.06-18.72-18.87-9.88.19-18.37,9.17-18.23,19.28s8.39,18.57,18.21,18.62A18.63,18.63,0,0,0,342.86,259.74Zm21.42-56.2c-9.77-.5-18.11,7.22-18.72,17.31-.64,10.64,6.87,19.25,17.31,19.83,9.67.54,18.93-8.54,19.29-18.93C382.51,211.91,374.82,204.08,364.28,203.54Zm-77-.08a18.94,18.94,0,0,0-18.47,18.87c.12,9.76,8.48,18.21,18.09,18.27a18.79,18.79,0,0,0,18.65-18.75A18.31,18.31,0,0,0,287.3,203.46Zm36.88-39.8c-10.42-.17-18.51,7.88-18.63,18.54-.11,9.51,8.37,18.23,17.94,18.45,10,.23,18.7-8.62,18.93-19.26C342.6,172.88,333.27,163.81,324.18,163.66Z"/></g></g></svg>