<svg xmlns="http://www.w3.org/2000/svg" viewBox="0 0 682.77 452.9"><g id="Layer_2" data-name="Layer 2"><g id="Layer_1-2" data-name="Layer 1"><path d="M241,358c0-16.26,0-31.22,0-46.19,0-11.24,2.4-14.36,13.28-16.93,17.64-4.15,31.5-13.77,41.7-28.73,6.12-9,14.53-10.23,20.54-3.15,3.15,3.71,3.59,8.49.61,13.45-10.64,17.71-25.31,30.72-44.92,37.8-2.18.79-4.39,1.49-7,2.39v29.88c0,6,.12,12-.06,18-.25,8.68-4.16,15.45-11.83,19.48-7.45,3.91-15,2.29-21.09-2.69-11.72-9.59-22.87-19.87-34.22-29.9-11-9.71-21.87-19.54-33-29.11a11,11,0,0,0-6.53-2.56c-24-.18-48-.05-72-.13-35.25-.13-60.38-17-76.94-47.35A76.1,76.1,0,0,1,.23,235.81C.07,187-.22,138.14.27,89.31.71,45.54,30.11,10.14,72.06,1.63A68.33,68.33,0,0,1,85.43.24C138.27.14,191.1-.3,243.93.35c25.31.31,46,12.28,62.72,30.83,14.1,15.61,22.14,34,22.5,55.18.34,20.32.09,40.66,0,61a12.14,12.14,0,0,1-11.66,12.43c-7.33.22-12.59-4.09-12.78-11.66-.39-14.82,0-29.66-.27-44.48-.15-9,.25-18.14-1.45-26.85-5.19-26.6-30-49.06-56.93-52.58a41.86,41.86,0,0,0-5.49-.14q-75.75,0-151.5,0c-35,0-64.08,29.35-64,64.48q.09,71.75,0,143.5c0,35.18,27.87,63.81,62.92,64.27,26.32.34,52.66.3,79,.21a15.29,15.29,0,0,1,11.24,4.18c19.58,18.09,39.27,36,58.93,54C238.07,355.6,239.06,356.4,241,358Z"/><path d="M417.47,394.1c-17-3.47-30.59-12.29-42.11-24.62Q353.43,346,353.28,313.85c0-4.34-.09-8.68.19-13,.46-7,5.44-11.52,12.08-11.32,7,.21,11.06,4.48,11.41,11.81.38,7.8.18,15.73,1.57,23.37,4.4,24.17,24,42.54,48.32,46.16,9.77,1.45,14.22,6.27,14.39,16.5.22,13.48.05,27,.05,41.32a36.24,36.24,0,0,0,3.17-2.23q28.07-25.56,56.09-51.19a14.33,14.33,0,0,1,10.68-4c27.16.28,54.32.27,81.49.15,33.5-.13,58.83-21.69,64.37-54.62a45.4,45.4,0,0,0,.34-7.48c0-48.33-.4-96.66.16-145,.33-28.64-20.79-55.52-51.77-61.53a63.22,63.22,0,0,0-11.91-1c-51-.08-102,.35-153-.21-35.2-.39-63.06,26-64,61.44-.13,5,0,10-.15,15-.19,7.19-4.26,11.51-10.88,11.73s-12.92-4.7-13.37-11c-3-41.61,12.15-75.4,49.59-93.75A73.2,73.2,0,0,1,434.56,78q80.25-.15,160.49,0A87.67,87.67,0,0,1,680.7,145.5a80.72,80.72,0,0,1,1.84,18.31c.14,47.66-.43,95.33.22,143,.61,44.63-35.16,84.06-77.31,88.09-5.78.55-11.61.82-17.42.84-23.17.09-46.33.13-69.5-.05-4,0-6.75,1.32-9.64,4C492,415.18,475,430.71,457.65,445.75a32.08,32.08,0,0,1-14.17,6.74c-12,2.41-23-6-24.83-18.85-1.11-7.87-.91-15.92-1.15-23.9C417.35,404.6,417.47,399.46,417.47,394.1Z"/><path d="M506.33,166c0-6-.1-11.16,0-16.3.15-5.41,2.7-8,8-8.1,18.5-.19,16.18-.18,16.48,15.65,0,2.63,0,5.27,0,8.46,2.37.12,4.28.3,6.2.3q29.47,0,59,0c9.53,0,12.44,2.91,12.41,12.56,0,13-1.29,14.17-14.31,14.23-4.45,0-10-1.22-13.05.94-2.82,2-3.07,7.72-4.29,11.85-7.09,24-20.14,44.78-34.51,64.88-.58.81-1.24,1.56-1.77,2.4a12.8,12.8,0,0,0-.68,2.49c9.57,6,19.14,12.61,29.28,18.18,8.72,4.79,18.1,8.36,27.14,12.57,5.92,2.75,6.06,3.08,3.58,8.95-1.87,4.44-4,8.75-6,13.16-1.58,3.59-4,4.28-7.64,3.05a193.66,193.66,0,0,1-57.36-30.7c-2.37-1.82-4.66-3.74-6.79-5.45-9.28,6.2-18.26,12.75-27.77,18.42a184.35,184.35,0,0,1-45.61,19.71c-4.64,1.28-7.37-.11-9.05-4.36s-3.3-8.72-5.24-12.94-.22-5.77,3.63-7.29c13.11-5.19,26.31-10.25,39-16.36,8.15-3.93,15.44-9.63,22.88-14.38-6.75-10.4-13.68-19.81-19.23-30-5.39-9.87-9.33-20.53-14-30.81-2-4.47-.44-6.91,4.12-7.9,4.87-1.06,9.75-2.09,14.58-3.27,3.93-1,5.69.89,7,4.36a152.53,152.53,0,0,0,27.45,46.61c9.19-6.75,28.47-43.45,33.52-64.17H438.46c-7.4,0-9.84-2.4-10-9.81,0-2.33,0-4.66,0-7,.15-7.91,2.18-9.89,10.27-9.9q30.73,0,61.48,0Z"/><path d="M166.6,204.05c-10.49,0-21,.08-31.48-.06-2.87,0-4.35.66-5.38,3.65-4,11.46-8.43,22.74-12.39,34.2-1.2,3.49-3.17,4.62-6.58,4.53-6.82-.17-13.66-.08-20.48-.25-5.78-.14-6.93-1.65-5-7.08,6.66-18.44,13.47-36.82,20.24-55.21Q125,131,144.46,78.14c3.13-8.54,3.29-8.78,12.49-8.82,8.16,0,16.32,0,24.48-.17,3.66-.1,5.91,1.08,7.18,4.66q29.55,83.7,59.31,167.33c1.41,4,.39,5.17-3.46,5.14-7.16-.05-14.33-.19-21.48,0-3.77.12-5.75-1.34-6.92-4.85-3.65-11.05-7.75-22-11.14-33.08-1.14-3.74-2.92-4.44-6.33-4.39C187.93,204.16,177.27,204.06,166.6,204.05ZM193.85,177c-8.91-25-17.7-49.77-26.5-74.51l-1.1-.27L139,177Z"/><path d="M319.06,210.67c21,0,44.27.07,67.55-.06,5.71,0,11.14-.09,13.89,6.18s2,12.31-2.87,17.06c-15.39,15-30.72,30-46.67,44.3-7.62,6.85-18.54,3.42-20.9-5.52-1.4-5.3.82-9.56,4.52-13,6.48-6,13.2-11.68,19.84-17.47,2.33-2,4.73-4,8.08-6.82-27.2,0-53-.08-78.74.07-5.64,0-10.41-1-12.53-6.79S271,218,275.49,213.88c9.76-8.8,19.55-17.59,29.12-26.6,4.46-4.21,8.41-9,12.62-13.45,3.34-3.57,6.79-6.81,12.21-6.85,8.65-.07,14.76,8,11.34,16-1.78,4.16-5,7.77-7.9,11.36C328.09,200.25,323,206,319.06,210.67Z"/></g></g></svg>