<svg xmlns="http://www.w3.org/2000/svg" viewBox="0 0 819.41 725.6">
    <defs>
        <style>.cls-1{fill:#FFA500;}</style>
    </defs>
    <g id="Layer_2" data-name="Layer 2">
        <g id="Layer_1-2" data-name="Layer 1">
            <path class="cls-1"
                d="M21.66,623.47v69.25a.94.94,0,0,1-.94.94H.94a.94.94,0,0,1-.94-.94V576.11a.94.94,0,0,1,.94-.94c9,0,18-.14,27,.18,1.26,0,3,2.29,3.56,3.86C39.33,600.45,47,621.75,54.81,643c1.78,4.87,3.65,9.7,5.69,15.05a.94.94,0,0,0,1.76,0c4.94-13.13,9.66-25.68,14.4-38.22,5.27-13.93,10.52-27.87,15.88-41.76.44-1.14,1.73-2.76,2.65-2.78,9.14-.2,18.29-.13,27.78-.13a1,1,0,0,1,1,.94V692.76a.94.94,0,0,1-.94.94H101.92a.94.94,0,0,1-.94-.94V622.34l-2.65-.49C93.48,634.42,88.61,647,83.82,659.6c-3.83,10-7.61,20.11-11.24,30.23-1.1,3-2.55,4.58-6.09,4.25-4.13-.38-8.34.13-12.48-.21-1.42-.11-3.52-1.29-4-2.48-8.61-22.73-17-45.53-25.48-68.32l0-.09Z" />
            <path class="cls-1"
                d="M306.35,576.64a1,1,0,0,1,.83-1.4c8.43,0,16.36-.14,24.27.16,1.45.06,3.29,1.93,4.13,3.43,7,12.36,13.82,24.83,20.89,37.63a.94.94,0,0,0,1.64,0c3.2-5.65,6.27-11.13,9.39-16.57,4.13-7.2,8.15-14.47,12.58-21.48a7.57,7.57,0,0,1,5.25-3.1c7.13-.33,14.28-.17,22.48-.15a.94.94,0,0,1,.8,1.45l-36.39,56.82a1,1,0,0,0,0,1l35.91,58.08a.94.94,0,0,1-.8,1.44c-8.77,0-17,.12-25.15-.16-1.27,0-2.82-2-3.65-3.38-7.19-12.09-14.25-24.25-21.4-36.51a.94.94,0,0,0-1.62,0c-7.13,12-14.3,23.84-21.18,35.86-1.92,3.35-4.15,4.49-7.94,4.31-6.5-.29-13-.11-20.32-.09a.94.94,0,0,1-.82-1.41c.76-1.32,1.38-2.42,2.05-3.49,10.66-17,21.24-34,32.08-50.92,1.89-2.95,1.86-5,0-7.89-10.51-16.72-20.83-33.55-31.19-50.35C307.59,578.92,307,577.88,306.35,576.64Z" />
            <path class="cls-1"
                d="M441.76,690.28v34.38a.94.94,0,0,1-.94.94H419.27a.94.94,0,0,1-.94-.94V612.42a.94.94,0,0,1,.94-.94h19.36a.94.94,0,0,1,.94.94v5.65a.94.94,0,0,0,1.68.57c7.91-10.6,19.05-11.83,30.52-10.39,12.89,1.61,22.14,9.11,27.32,21.23,6.53,15.25,6.39,30.67.5,46-9.29,24.11-40.65,30-56.22,14.18A.94.94,0,0,0,441.76,690.28ZM461.4,627c-10.63,0-16.68,4.41-18.49,14.85a74.37,74.37,0,0,0-.77,19.76c1,10.25,7.44,16.07,16.54,16.55,11.34.6,17.94-3.55,19.95-14.8a69.34,69.34,0,0,0-.07-23C477.09,631.33,470.39,627,461.4,627Z" />
            <path class="cls-1"
                d="M650.55,668.93a1,1,0,0,1,.92,1.19c-3.68,13.11-11.05,22.19-24.22,26.09-18,5.34-34.35,3-47.2-11.61-9.91-11.24-11.33-25.2-9.81-39.45,1.23-11.56,5.35-22,15.07-29.2,13.8-10.21,29.14-10.52,44.44-4.79,13.67,5.12,20.4,16.32,22.13,30.56.58,4.79.83,9.63,1.24,14.95a.94.94,0,0,1-.93,1H594.92a.94.94,0,0,0-.94.91c-.24,9.16,4.4,16.58,11.82,19.34,8.75,3.27,18.05,1.09,23.38-6a6.58,6.58,0,0,1,6.13-3C640.24,669,645.18,668.94,650.55,668.93Zm-21.88-26.19a.94.94,0,0,0,1-1c-.33-9.06-6.71-15.5-15.85-16.18-10.61-.77-17.51,4.85-19.52,16a.94.94,0,0,0,.93,1.09Z" />
            <path class="cls-1"
                d="M200.81,693.78H178.73a.94.94,0,0,1-.94-.94V612.45a.94.94,0,0,1,.94-.94H199.6a.94.94,0,0,1,.94.89c.08,1.59.17,3.23.26,5.16a.94.94,0,0,0,1.69.52c4.1-5.31,9-8.52,15.42-9.56,19.14-3.11,36.23,5.21,38.56,26.58,1.83,16.8.93,33.9,1.23,50.88,0,2.18,0,4.36,0,6.75a1,1,0,0,1-.94.95H234.91a.94.94,0,0,1-.93-.87c-.09-1.06-.19-2.18-.2-3.29,0-15,.11-30-.08-45-.16-13.55-11.26-20.31-23.38-14.35-6.95,3.42-8.36,10-8.49,16.81-.25,13.33-.08,26.67-.08,40v5.86A.94.94,0,0,1,200.81,693.78Z" />
            <path class="cls-1"
                d="M734.82,636a1,1,0,0,1-1,1c-6.22,0-11.89.16-17.54-.14-1.25-.07-2.9-1.7-3.53-3-4.23-8.77-16.19-11.88-24.16-6.12-4.23,3.06-4.14,9.42.75,11.19,7.09,2.57,14.57,4,21.9,5.95,2.24.58,4.54.91,6.75,1.55,9.79,2.84,16.89,8.42,18.75,19,2,11.41-2.4,20.12-11.68,26.54-13.85,9.58-37.6,9-51.21-1.07-6.68-4.94-9.27-9.41-10.8-19.48a.94.94,0,0,1,.93-1.08c5.81,0,11.55-.11,17.28.13,1,0,2.47,1.5,2.94,2.63,3.84,9.18,20.71,10.18,27.13,4.3,4.23-3.88,3.39-10.52-2.17-12.39-6.69-2.26-13.85-3.08-20.61-5.17-5.45-1.68-11.35-3.36-15.76-6.73-13.08-10-11.8-29,2-38.63,13.34-9.34,36.31-9,49.29.92C730.74,620.5,734.08,627.31,734.82,636Z" />
            <path class="cls-1"
                d="M745.94,671.42a1,1,0,0,1,.95-.94c5.76,0,11.27-.15,16.77.12a6.08,6.08,0,0,1,4.11,2.47,18.55,18.55,0,0,0,25,5.63c3-1.83,5.17-4.54,3.86-7.8-1-2.56-3.45-5.63-5.88-6.36-7.9-2.39-16.15-3.6-24.16-5.65-13.84-3.53-21.28-13-20.76-26,.45-11,8.88-20.39,21.66-23.53a51.5,51.5,0,0,1,28.51.79c11.89,3.84,19.83,14.24,19.65,25.94a1,1,0,0,1-.94.91c-5.61,0-11.25.11-16.88-.13-1,0-2.48-1.58-2.75-2.68-2.62-10.51-17.8-11.09-24.76-5.86a6.49,6.49,0,0,0,2,11.48c6.84,2.31,14.06,3.53,21.12,5.2,7.94,1.88,16,3.63,21.29,10.66,8.31,11,5.46,26.5-6.67,35.59-14.78,11.08-42.53,10.18-55.58-4.08A23.39,23.39,0,0,1,745.94,671.42Z" />
            <path class="cls-1"
                d="M514.92,692.71V612.44a.94.94,0,0,1,.94-.94h19.25a.93.93,0,0,1,.93.89c.1,1.77.19,3.54.26,5a.94.94,0,0,0,1.55.67c3.39-2.87,7-6.57,11.38-8.33,4.82-1.94,10.53-1.67,16.25-2.23a.93.93,0,0,1,1,.93v19.25a1,1,0,0,1-1,.94c-1.78-.19-3.51-.4-5.25-.49-14.19-.69-22.13,6.92-22.35,21.74-.2,12.66-.06,25.32-.07,38v4.84a.94.94,0,0,1-.94.94h-21A.94.94,0,0,1,514.92,692.71Z" />
            <rect class="cls-1" x="271.07" y="611.34" width="23.37" height="82.41" rx="0.94" />
            <rect class="cls-1" x="137.91" y="611.4" width="22.7" height="82.23" rx="0.94" />
            <rect class="cls-1" x="165.87" y="269.54" width="30" height="29.51" rx="4.64" />
            <rect class="cls-1" x="165.91" y="326.52" width="30.05" height="28.51" rx="4.64" />
            <rect class="cls-1" x="222.64" y="269.62" width="28.26" height="29.51" rx="4.64" />
            <rect class="cls-1" x="222.49" y="326.57" width="28.4" height="28.35" rx="4.64" />
            <path class="cls-1"
                d="M155.86,140.47c2.45,1.81,3.93,3.11,5.59,4.1C204,170,246.61,195.25,289.08,220.78c4.54,2.73,8.05,2.53,12.35-.11q51.85-31.86,103.85-63.48c1.13-.69,2.26-1.88,3.44-1.93,2.28-.09,5.76-.32,6.59.93,1.11,1.67.89,5.07-.09,7.06-1.19,2.41-3.72,4.2-5.77,6.14C380,197.17,350.62,225,321,252.61c-5.7,5.31-8.93,10.71-8.82,18.9.43,34.17.1,68.34.39,102.51a51.09,51.09,0,0,1-5.33,24c-4.75,9.4-7.46,19.24-4.75,29.83,6.53,25.49,35.71,33.54,54.54,14.86,30.53-30.27,60.83-60.77,91.27-91.13,6.95-6.94,13.62-14.27,21.24-20.41,17.16-13.85,36.37-14.9,55.12-3.36,22.92,14.11,36.83,35.26,44.91,60.35,9.23,28.65,10.15,57.84,3.31,87.14a71.28,71.28,0,0,1-15.62,30.86c-18,20.78-46.37,21.67-67.08,1.78-11.3-10.84-22.26-22-33.2-33.24a13.63,13.63,0,0,0-10.51-4.61c-17.33.1-34.67.12-52-.14-5.07-.07-8.68,1.63-12.21,5.21-11.33,11.52-23,22.73-34.52,34a45.29,45.29,0,0,1-20.85,12.13c-10.27,2.57-19.37-.47-28-5.76-60.65-37.2-121.18-74.59-182-111.5-10.63-6.45-15-14.52-14.92-26.84.33-73.51.18-147,.2-220.53,0-2.66,0-5.33,0-8-.13-10.12,3.66-17.59,12.81-23,31.52-18.59,62.75-37.67,94.1-56.55,36-21.7,72.14-43.28,108.06-65.16,8.23-5,15.34-5.65,24-.33,43.5,26.7,87.3,52.9,131,79.27,2.56,1.54,5.27,2.85,7.77,4.47,3.81,2.47,4.25,5,1.1,8.06-5,4.86-10.28,9.47-15.46,14.17-3.59,3.25-7.26,3.21-11.36.71-16.48-10-33.07-19.85-49.57-29.81-23.49-14.18-47-28.33-70.36-42.7-4.65-2.85-8.17-1-11.95,1.27q-24.74,15-49.46,30-55.72,33.63-111.45,67.22C159.74,137.38,158.27,138.67,155.86,140.47ZM277.79,355.66h.06c0-30.82-.13-61.65.09-92.47.05-6.45-2.33-10.49-7.85-13.69-16.24-9.42-32.28-19.19-48.37-28.87-24.78-14.92-49.51-29.92-74.32-44.8-6.25-3.75-8.47-2.45-8.47,4.64q0,93.72-.1,187.43c0,6.42,2.21,10.33,7.79,13.61,30.8,18.12,61.4,36.58,92.06,54.92,10.28,6.15,20.51,12.36,30.84,18.42,5.38,3.16,8,1.59,8.25-4.72,0-1,0-2,0-3Zm211.39,5.68A14.71,14.71,0,0,0,475,376.27c.22,7.81,7.82,15.32,15.15,15s13.77-7.5,13.78-15.13C503.9,368.66,496.47,361.2,489.18,361.34Zm.07,63A14.48,14.48,0,0,0,475,439.14a14.74,14.74,0,0,0,14.79,14.37,14.35,14.35,0,0,0,14.09-14.41C503.76,431.3,496.85,424.33,489.25,424.32Zm32.27-1.06c7.05.27,13.92-6.88,14.11-14.67.17-7.4-6.66-14.88-13.8-15.11-7.49-.24-14.52,6.26-14.88,13.76C506.57,415.28,513.56,423,521.52,423.26Zm-48.41-14.79c-.07-8.14-6.72-15.12-14.21-14.93S444.83,401.09,445,409c.13,7.15,7.13,14.35,13.95,14.36C466.73,423.31,473.19,416.56,473.11,408.47Z" />
            <path class="cls-1"
                d="M512.58,214.34h30.49c3.74,0,7.69-.07,9.49,4,2,4.43-.74,7.54-3.7,10.49q-47.78,47.64-95.49,95.34-52.08,52.16-104,104.42c-1.41,1.41-2.76,3.57-4.42,3.88a13,13,0,0,1-7.85-.82c-3.24-1.66-2.19-4.91-.81-7.48,6.65-12.46,13.4-24.86,20.14-37.26q27.14-49.9,54.28-99.81c4.07-7.51,2.62-9.75-6-9.76q-25.74,0-51.49,0c-3.65,0-7.38-.26-8.91-4.05s.84-6.59,3.48-9.16c30.94-30.08,62-60.06,92.71-90.33s61-60.59,91.42-90.9c1.3-1.3,2.64-2.55,3.9-3.87,2.27-2.38,5.09-2.54,7-.3,1.27,1.5,2.1,4.66,1.39,6.32a166.13,166.13,0,0,1-8.2,15.41q-21,37.14-42,74.26c-5.5,9.68-11.31,19.18-16.63,28.95-1.39,2.55-2.3,6-1.75,8.68.24,1.13,4.83,1.85,7.46,1.91C492.92,214.47,502.75,214.34,512.58,214.34Z" />
            <path class="cls-1"
                d="M309.92,83.93h.66c7.69,0,8,.24,8.05,7.83,0,2.59,1.06,3.34,3.34,4.23,3.69,1.43,6.28,1.21,8.54-2.32,1.64-2.56,4.13-2.3,6.26-.54a69.78,69.78,0,0,1,6.66,6.32c1.73,1.87,1.75,3.93-.28,5.75-.57.51-1.12,1.05-1.69,1.57-3.6,3.24-3.89,5.19-1,9.07a4.68,4.68,0,0,0,2.78,1.39c1.6.3,3.27.21,4.91.36,2.42.23,3.8,1.52,3.84,4,0,2.85,0,5.69.06,8.54,0,2.46-1.26,3.61-3.6,3.73a16.78,16.78,0,0,1-3.61,0c-2.78-.46-4.09.61-5.47,3.16-1.9,3.54-1.2,5.58,1.72,7.93,4.5,3.61,4.47,5.32.65,9.64-5.92,6.7-6.61,6.8-12.71.38-2-2.07-3.75-1.68-5.86-.8s-4.57,1.57-4.45,4.82c.27,7.12.36,7.4-7.5,7.19h-.33c-8.35-.1-8.59-.18-8.63-8.38,0-3.06-2.14-3.15-3.95-3.87s-3.54-2-5.17.45c-4.58,6.83-7.17,5.34-11.9.07-.72-.82-1.57-1.53-2.32-2.32-1.79-1.9-1.88-3.85-.12-5.83.43-.49.9-.95,1.36-1.43,3.7-3.85,3.6-3.81,1.47-8.48-1-2.1-2.23-3.05-4.52-2.73a20.73,20.73,0,0,1-2.95.07c-3.76-.08-5.05-1.29-5.44-5.08a15.13,15.13,0,0,1-.08-1.64c0-9.8-1.07-10.07,8.72-9.74,2.45.08,3-1.65,3.75-3.4,2-4.87,2-4.86-1.77-8.31-3.36-3-3.52-4.87-.73-8.39.74-1,1.52-1.87,2.28-2.79,3.27-3.94,6.23-4,9.89-.34S296.69,98,301,95.34a3.21,3.21,0,0,0,1.09-1.75,6.1,6.1,0,0,0,.05-2C302,83,303.1,83.64,309.92,83.93Zm.77,25.49a16.16,16.16,0,0,0-16.31,16.19c0,7.7,7.88,15.42,15.83,15.46a16.14,16.14,0,0,0,16.29-16.15C326.5,116.54,319.23,109.41,310.69,109.42Z" />
        </g>
    </g>
</svg>