<svg xmlns="http://www.w3.org/2000/svg" viewBox="0 0 475.39 522.36">
    <defs>
        <style>.cls-1{fill:#FFA500;}</style>
    </defs>
    <g id="Layer_2" data-name="Layer 2">
        <g id="Layer_1-2" data-name="Layer 1">
            <rect class="cls-1" x="63.91" y="269.54" width="30" height="29.51" rx="4.64" />
            <rect class="cls-1" x="63.95" y="326.52" width="30.05" height="28.51" rx="4.64" />
            <rect class="cls-1" x="120.69" y="269.62" width="28.26" height="29.51" rx="4.64" />
            <rect class="cls-1" x="120.54" y="326.57" width="28.4" height="28.35" rx="4.64" />
            <path class="cls-1"
                d="M53.91,140.47c2.44,1.81,3.92,3.11,5.59,4.1,42.55,25.39,85.16,50.68,127.63,76.21,4.54,2.73,8,2.53,12.35-.11q51.84-31.86,103.84-63.48c1.14-.69,2.27-1.88,3.44-1.93,2.28-.09,5.76-.32,6.59.93,1.11,1.67.9,5.07-.09,7.06-1.19,2.41-3.71,4.2-5.77,6.14C278,197.17,248.66,225,219,252.61c-5.7,5.31-8.92,10.71-8.82,18.9.43,34.17.11,68.34.39,102.51a51,51,0,0,1-5.33,24c-4.75,9.4-7.46,19.24-4.74,29.83,6.53,25.49,35.71,33.54,54.54,14.86,30.52-30.27,60.82-60.77,91.26-91.13,7-6.94,13.63-14.27,21.24-20.41,17.16-13.85,36.38-14.9,55.12-3.36,22.92,14.11,36.84,35.26,44.92,60.35,9.22,28.65,10.14,57.84,3.31,87.14A71.39,71.39,0,0,1,455.3,506.2c-18,20.78-46.37,21.67-67.09,1.78-11.29-10.84-22.25-22-33.19-33.24a13.65,13.65,0,0,0-10.52-4.61c-17.33.1-34.66.12-52-.14-5.06-.07-8.67,1.63-12.2,5.21-11.33,11.52-23,22.73-34.53,34a45.29,45.29,0,0,1-20.85,12.13c-10.27,2.57-19.37-.47-28-5.76-60.64-37.2-121.18-74.59-182-111.5C4.3,397.66-.06,389.59,0,377.27c.34-73.51.19-147,.2-220.53,0-2.66.06-5.33,0-8-.13-10.12,3.65-17.59,12.8-23,31.53-18.59,62.75-37.67,94.1-56.55,36-21.7,72.15-43.28,108.07-65.16,8.23-5,15.34-5.65,24-.33,43.5,26.7,87.3,52.9,131,79.27,2.56,1.54,5.26,2.85,7.77,4.47,3.8,2.47,4.24,5,1.1,8.06-5,4.86-10.29,9.47-15.47,14.17-3.58,3.25-7.25,3.21-11.36.71-16.48-10-33.06-19.85-49.57-29.81-23.48-14.18-47-28.33-70.36-42.7-4.64-2.85-8.17-1-11.95,1.27q-24.72,15-49.46,30-55.71,33.63-111.45,67.22C57.78,137.38,56.32,138.67,53.91,140.47ZM175.84,355.66h0c0-30.82-.12-61.65.1-92.47,0-6.45-2.33-10.49-7.85-13.69-16.24-9.42-32.29-19.19-48.38-28.87C95,205.71,70.25,190.71,45.45,175.83c-6.26-3.75-8.47-2.45-8.48,4.64q0,93.72-.09,187.43c0,6.42,2.2,10.33,7.79,13.61,30.8,18.12,61.39,36.58,92.06,54.92,10.27,6.15,20.51,12.36,30.83,18.42,5.38,3.16,8,1.59,8.25-4.72.05-1,0-2,0-3Zm211.38,5.68A14.7,14.7,0,0,0,373,376.27c.22,7.81,7.82,15.32,15.14,15s13.77-7.5,13.78-15.13C401.94,368.66,394.51,361.2,387.22,361.34Zm.07,63A14.49,14.49,0,0,0,373,439.14a14.74,14.74,0,0,0,14.8,14.37,14.35,14.35,0,0,0,14.09-14.41C401.8,431.3,394.9,424.33,387.29,424.32Zm32.27-1.06c7.06.27,13.93-6.88,14.11-14.67.17-7.4-6.65-14.88-13.79-15.11-7.49-.24-14.52,6.26-14.88,13.76C404.61,415.28,411.6,423,419.56,423.26Zm-48.4-14.79c-.07-8.14-6.72-15.12-14.21-14.93S342.88,401.09,343,409c.13,7.15,7.12,14.35,13.94,14.36C364.78,423.31,371.23,416.56,371.16,408.47Z" />
            <path class="cls-1"
                d="M410.63,214.34h30.49c3.73,0,7.68-.07,9.48,4,2,4.43-.73,7.54-3.69,10.49q-47.78,47.64-95.49,95.34-52.08,52.16-104,104.42c-1.41,1.41-2.76,3.57-4.42,3.88a13,13,0,0,1-7.85-.82c-3.23-1.66-2.18-4.91-.81-7.48,6.66-12.46,13.41-24.86,20.15-37.26q27.13-49.9,54.27-99.81c4.07-7.51,2.63-9.75-6-9.76q-25.74,0-51.48,0c-3.65,0-7.38-.26-8.91-4.05s.84-6.59,3.48-9.16c30.93-30.08,62-60.06,92.71-90.33s61-60.59,91.41-90.9c1.3-1.3,2.64-2.55,3.91-3.87,2.27-2.38,5.08-2.54,7-.3,1.27,1.5,2.11,4.66,1.39,6.32a163.77,163.77,0,0,1-8.2,15.41q-21,37.14-42,74.26c-5.49,9.68-11.31,19.18-16.63,28.95-1.38,2.55-2.3,6-1.74,8.68.24,1.13,4.83,1.85,7.46,1.91C391,214.47,400.79,214.34,410.63,214.34Z" />
            <path class="cls-1"
                d="M208,83.93h.66c7.68,0,8,.24,8,7.83,0,2.59,1.06,3.34,3.34,4.23,3.7,1.43,6.28,1.21,8.54-2.32,1.65-2.56,4.14-2.3,6.26-.54a69.89,69.89,0,0,1,6.67,6.32c1.73,1.87,1.74,3.93-.29,5.75-.57.51-1.11,1.05-1.68,1.57-3.61,3.24-3.89,5.19-1,9.07a4.69,4.69,0,0,0,2.77,1.39c1.6.3,3.27.21,4.91.36,2.42.23,3.81,1.52,3.84,4,0,2.85,0,5.69.07,8.54,0,2.46-1.26,3.61-3.61,3.73a16.69,16.69,0,0,1-3.6,0c-2.78-.46-4.09.61-5.47,3.16-1.91,3.54-1.2,5.58,1.72,7.93,4.49,3.61,4.46,5.32.64,9.64-5.92,6.7-6.6,6.8-12.7.38-2-2.07-3.76-1.68-5.87-.8s-4.57,1.57-4.44,4.82c.26,7.12.35,7.4-7.51,7.19h-.33c-8.34-.1-8.58-.18-8.63-8.38,0-3.06-2.13-3.15-3.95-3.87s-3.54-2-5.16.45c-4.58,6.83-7.18,5.34-11.9.07-.73-.82-1.58-1.53-2.33-2.32-1.78-1.9-1.87-3.85-.12-5.83.44-.49.91-.95,1.36-1.43,3.71-3.85,3.6-3.81,1.47-8.48-1-2.1-2.22-3.05-4.51-2.73a20.83,20.83,0,0,1-3,.07c-3.75-.08-5.05-1.29-5.44-5.08-.05-.55-.07-1.1-.07-1.64,0-9.8-1.08-10.07,8.71-9.74,2.46.08,3-1.65,3.75-3.4,2-4.87,2-4.86-1.76-8.31-3.36-3-3.53-4.87-.74-8.39.75-1,1.52-1.87,2.29-2.79,3.27-3.94,6.23-4,9.88-.34s5.9,3.89,10.26,1.22a3.27,3.27,0,0,0,1.09-1.75,6.4,6.4,0,0,0,0-2C200,83,201.14,83.64,208,83.93Zm.77,25.49a16.16,16.16,0,0,0-16.32,16.19c0,7.7,7.88,15.42,15.84,15.46a16.13,16.13,0,0,0,16.28-16.15C224.55,116.54,217.28,109.41,208.74,109.42Z" />
        </g>
    </g>
</svg>