<svg xmlns="http://www.w3.org/2000/svg" viewBox="0 0 1150.17 828.23">
    <defs>
        <style>.cls-1{fill:#fff;}.cls-2{fill:#FFA500;}</style>
    </defs>
    <g id="Layer_2" data-name="Layer 2">
        <g id="Layer_1-2" data-name="Layer 1">
            <rect class="cls-1" width="1150.17" height="828.23" rx="90.8" />
            <path class="cls-2"
                d="M227.48,669.05V738.3a.94.94,0,0,1-.94.94H206.77a.94.94,0,0,1-.94-.94V621.69a.94.94,0,0,1,.94-.94c9,0,18-.14,26.94.18,1.26,0,3,2.29,3.57,3.86,7.88,21.24,15.58,42.54,23.35,63.81,1.78,4.87,3.66,9.7,5.69,15a.94.94,0,0,0,1.76,0c4.95-13.13,9.67-25.68,14.41-38.22,5.26-13.93,10.51-27.87,15.88-41.76.44-1.14,1.72-2.77,2.64-2.79,9.15-.19,18.29-.13,27.79-.12a.94.94,0,0,1,.94.94V738.34a.94.94,0,0,1-.94.94H307.75a.94.94,0,0,1-.94-.94V667.92l-2.65-.5c-4.85,12.58-9.72,25.16-14.52,37.75-3.82,10.05-7.6,20.12-11.24,30.23-1.09,3.05-2.54,4.59-6.09,4.26-4.13-.38-8.34.12-12.47-.21-1.42-.11-3.52-1.29-4-2.48-8.62-22.73-17-45.53-25.48-68.32l0-.09Z" />
            <path class="cls-2"
                d="M512.18,622.22a1,1,0,0,1,.82-1.4c8.44,0,16.37-.14,24.28.16,1.44.06,3.28,1.93,4.13,3.42,7,12.37,13.82,24.83,20.88,37.64a1,1,0,0,0,1.65,0c3.2-5.65,6.27-11.13,9.39-16.58,4.12-7.2,8.15-14.46,12.58-21.48a7.57,7.57,0,0,1,5.25-3.09c7.13-.33,14.27-.17,22.48-.15a1,1,0,0,1,.8,1.45L578.05,679a.93.93,0,0,0,0,1L614,738.1a.94.94,0,0,1-.8,1.44c-8.77,0-17,.12-25.16-.16-1.27,0-2.81-2-3.65-3.38-7.18-12.09-14.24-24.25-21.39-36.51a1,1,0,0,0-1.63,0c-7.12,12-14.29,23.84-21.17,35.86-1.92,3.35-4.15,4.49-7.94,4.31-6.5-.29-13-.12-20.33-.09a1,1,0,0,1-.82-1.41c.76-1.32,1.39-2.42,2.06-3.49,10.65-17,21.24-34,32.07-50.92,1.9-3,1.87-5,0-7.9-10.51-16.71-20.83-33.54-31.2-50.34C513.42,624.5,512.86,623.46,512.18,622.22Z" />
            <path class="cls-2"
                d="M647.59,735.86v34.38a.94.94,0,0,1-.94.94H625.1a.94.94,0,0,1-.94-.94V658a.94.94,0,0,1,.94-.94h19.36a.94.94,0,0,1,.94.94v5.65a.93.93,0,0,0,1.68.57c7.91-10.61,19-11.83,30.52-10.4,12.88,1.62,22.13,9.11,27.32,21.24,6.53,15.25,6.38,30.67.49,46-9.28,24.11-40.64,30-56.21,14.18A.93.93,0,0,0,647.59,735.86Zm19.64-63.31c-10.63,0-16.68,4.41-18.49,14.85a74.37,74.37,0,0,0-.77,19.76c1,10.25,7.43,16.07,16.54,16.55,11.34.6,17.94-3.55,19.94-14.8a69.34,69.34,0,0,0-.06-23C682.92,676.91,676.22,672.55,667.23,672.55Z" />
            <path class="cls-2"
                d="M856.37,714.51a.94.94,0,0,1,.92,1.19c-3.67,13.1-11,22.19-24.21,26.09-18,5.34-34.36,3-47.21-11.61-9.9-11.24-11.32-25.2-9.81-39.45,1.23-11.56,5.35-22,15.08-29.2,13.8-10.21,29.14-10.52,44.44-4.79,13.67,5.11,20.4,16.32,22.13,30.56.58,4.79.83,9.62,1.24,15a1,1,0,0,1-.94,1H800.75a.93.93,0,0,0-.94.91c-.24,9.16,4.4,16.58,11.81,19.34,8.76,3.27,18.06,1.09,23.39-6a6.56,6.56,0,0,1,6.12-3C846.07,714.6,851,714.52,856.37,714.51ZM834.5,688.32a.94.94,0,0,0,.94-1c-.32-9.06-6.7-15.51-15.85-16.18-10.6-.78-17.51,4.85-19.51,16.05a.94.94,0,0,0,.93,1.09Z" />
            <path class="cls-2"
                d="M406.64,739.36H384.56a.94.94,0,0,1-.94-.94V658a.94.94,0,0,1,.94-.94h20.87a.94.94,0,0,1,.94.89c.08,1.59.16,3.23.26,5.16a.94.94,0,0,0,1.69.52c4.1-5.31,9-8.52,15.42-9.56,19.14-3.11,36.23,5.21,38.56,26.57,1.83,16.81.93,33.91,1.23,50.88,0,2.18,0,4.36,0,6.76a1,1,0,0,1-.94,1H440.74a1,1,0,0,1-.94-.87c-.08-1.06-.19-2.18-.19-3.3,0-15,.1-30-.08-45-.16-13.55-11.26-20.31-23.38-14.35-6.95,3.42-8.37,10-8.49,16.81-.25,13.33-.08,26.66-.08,40v5.86A1,1,0,0,1,406.64,739.36Z" />
            <path class="cls-2"
                d="M940.65,681.58a1,1,0,0,1-.95,1c-6.22,0-11.89.15-17.54-.14-1.26-.07-2.9-1.7-3.53-3-4.23-8.77-16.19-11.88-24.16-6.12-4.23,3.06-4.14,9.42.74,11.19,7.09,2.57,14.58,4.05,21.91,6,2.23.58,4.53.91,6.75,1.55,9.79,2.84,16.89,8.42,18.75,19,2,11.41-2.4,20.12-11.68,26.54-13.86,9.57-37.6,9-51.22-1.07-6.67-4.94-9.26-9.41-10.79-19.48a.93.93,0,0,1,.93-1.08c5.81,0,11.55-.11,17.27.12,1,0,2.48,1.51,3,2.64,3.83,9.18,20.71,10.18,27.13,4.3,4.23-3.88,3.39-10.52-2.17-12.39-6.69-2.26-13.85-3.08-20.61-5.17-5.45-1.69-11.35-3.36-15.76-6.73-13.08-10-11.81-29,2-38.63,13.34-9.35,36.31-9,49.28.92C936.57,666.08,939.9,672.89,940.65,681.58Z" />
            <path class="cls-2"
                d="M951.77,717a1,1,0,0,1,1-.94c5.76,0,11.27-.15,16.77.12a6.08,6.08,0,0,1,4.11,2.47,18.56,18.56,0,0,0,25,5.63c3-1.84,5.17-4.55,3.86-7.81-1-2.56-3.45-5.62-5.88-6.36-7.9-2.38-16.15-3.59-24.17-5.64-13.83-3.53-21.28-13.05-20.75-26,.45-11,8.88-20.39,21.65-23.53a51.53,51.53,0,0,1,28.52.79c11.88,3.84,19.83,14.24,19.65,25.93a1,1,0,0,1-1,.92c-5.6,0-11.24.11-16.88-.13-1,0-2.47-1.58-2.75-2.68-2.61-10.52-17.79-11.1-24.76-5.86a6.5,6.5,0,0,0,2,11.48c6.85,2.31,14.06,3.52,21.12,5.2,7.94,1.88,16,3.63,21.3,10.65,8.31,11,5.45,26.51-6.67,35.6-14.78,11.08-42.53,10.18-55.58-4.08A23.41,23.41,0,0,1,951.77,717Z" />
            <path class="cls-2"
                d="M720.75,738.29V658a.94.94,0,0,1,.94-.94h19.24a.94.94,0,0,1,.94.9c.09,1.77.18,3.54.26,5a.94.94,0,0,0,1.54.67c3.4-2.87,7-6.57,11.39-8.33,4.82-1.94,10.53-1.68,16.25-2.23a.93.93,0,0,1,1,.92v19.26a.94.94,0,0,1-1,.94c-1.78-.19-3.51-.4-5.24-.49-14.19-.69-22.13,6.92-22.36,21.74-.19,12.66-.05,25.32-.06,38v4.85a1,1,0,0,1-.94.94h-21A.94.94,0,0,1,720.75,738.29Z" />
            <rect class="cls-2" x="476.9" y="656.92" width="23.37" height="82.41" rx="0.94" />
            <rect class="cls-2" x="343.73" y="656.98" width="22.7" height="82.23" rx="0.94" />
            <rect class="cls-2" x="371.7" y="315.12" width="30" height="29.51" rx="4.64" />
            <rect class="cls-2" x="371.74" y="372.09" width="30.05" height="28.51" rx="4.64" />
            <rect class="cls-2" x="428.47" y="315.2" width="28.26" height="29.51" rx="4.64" />
            <rect class="cls-2" x="428.32" y="372.14" width="28.4" height="28.35" rx="4.64" />
            <path class="cls-2"
                d="M361.69,186c2.45,1.81,3.93,3.11,5.59,4.11,42.55,25.39,85.16,50.68,127.63,76.21,4.54,2.73,8,2.53,12.35-.11q51.86-31.86,103.84-63.48c1.14-.7,2.27-1.88,3.44-1.93,2.28-.09,5.77-.32,6.6.93,1.1,1.67.89,5.07-.09,7.06-1.19,2.41-3.72,4.2-5.78,6.14-29.45,27.78-58.83,55.63-88.46,83.22-5.7,5.31-8.92,10.71-8.82,18.9.43,34.17.11,68.34.39,102.51a51,51,0,0,1-5.33,24c-4.74,9.4-7.45,19.24-4.74,29.83C514.84,499,544,507,562.85,488.33c30.53-30.27,60.82-60.77,91.26-91.13,7-6.94,13.63-14.27,21.24-20.42,17.16-13.84,36.38-14.89,55.12-3.35,22.93,14.1,36.84,35.26,44.92,60.35,9.23,28.64,10.14,57.84,3.31,87.14a71.28,71.28,0,0,1-15.62,30.86c-18,20.78-46.37,21.67-67.08,1.78-11.3-10.84-22.26-22-33.2-33.24a13.61,13.61,0,0,0-10.52-4.61c-17.33.1-34.66.12-52-.14-5.06-.08-8.67,1.62-12.2,5.21-11.33,11.52-23,22.73-34.52,34a45.17,45.17,0,0,1-20.86,12.12c-10.26,2.58-19.37-.46-28-5.75-60.65-37.2-121.19-74.6-182-111.5-10.63-6.45-15-14.52-14.93-26.84.34-73.51.19-147,.21-220.53,0-2.67.05-5.33,0-8-.13-10.12,3.66-17.59,12.81-23,31.52-18.59,62.75-37.67,94.09-56.55,36-21.7,72.15-43.28,108.07-65.17,8.23-5,15.34-5.64,24-.33,43.5,26.71,87.3,52.91,131,79.28,2.56,1.54,5.26,2.85,7.77,4.47,3.81,2.47,4.24,5,1.1,8.05-5,4.87-10.29,9.48-15.46,14.18-3.59,3.25-7.26,3.21-11.37.71-16.48-10-33.06-19.85-49.57-29.81-23.48-14.18-47-28.33-70.35-42.7-4.65-2.85-8.17-1-12,1.27q-24.74,15-49.47,30Q422.95,148.37,367.21,182C365.57,183,364.1,184.25,361.69,186Zm121.93,215.2h.05c0-30.82-.12-61.65.1-92.47.05-6.45-2.33-10.49-7.85-13.69-16.24-9.42-32.29-19.19-48.38-28.87-24.78-14.92-49.51-29.92-74.31-44.8-6.26-3.75-8.47-2.45-8.47,4.63q0,93.72-.1,187.44c0,6.42,2.21,10.33,7.79,13.61,30.8,18.11,61.39,36.58,92.06,54.92,10.27,6.15,20.51,12.36,30.84,18.42,5.37,3.15,8,1.59,8.24-4.72.05-1,0-2,0-3ZM695,406.92a14.71,14.71,0,0,0-14.21,14.93c.22,7.81,7.82,15.32,15.15,15s13.77-7.5,13.77-15.13C709.72,414.24,702.29,406.78,695,406.92Zm.08,63a14.49,14.49,0,0,0-14.26,14.82,14.75,14.75,0,0,0,14.8,14.37,14.36,14.36,0,0,0,14.09-14.41C709.58,476.88,702.68,469.91,695.08,469.9Zm32.27-1.06c7,.27,13.92-6.88,14.1-14.67.18-7.4-6.65-14.89-13.79-15.11-7.49-.25-14.52,6.26-14.88,13.76C712.4,460.86,719.39,468.55,727.35,468.84Zm-48.41-14.79c-.07-8.14-6.72-15.12-14.21-14.93s-14.07,7.55-13.93,15.41c.13,7.15,7.12,14.35,14,14.35C672.56,468.89,679,462.14,678.94,454.05Z" />
            <path class="cls-2"
                d="M718.41,259.92H748.9c3.73,0,7.68-.06,9.48,4,2,4.43-.73,7.54-3.69,10.49Q706.92,322,659.2,369.72q-52.08,52.15-104.05,104.43c-1.4,1.41-2.75,3.57-4.41,3.88a13.06,13.06,0,0,1-7.86-.82c-3.23-1.66-2.18-4.91-.8-7.49,6.65-12.45,13.4-24.85,20.14-37.25q27.13-49.91,54.27-99.81c4.07-7.51,2.63-9.76-6-9.76q-25.75,0-51.49,0c-3.65,0-7.38-.26-8.91-4.05s.84-6.59,3.48-9.16c30.93-30.08,62-60.06,92.71-90.33s61-60.59,91.42-90.91c1.3-1.29,2.64-2.54,3.9-3.87,2.27-2.37,5.08-2.54,7-.29,1.28,1.5,2.11,4.66,1.39,6.32a162.38,162.38,0,0,1-8.2,15.4q-20.94,37.15-42,74.26c-5.5,9.69-11.31,19.19-16.63,29-1.39,2.55-2.31,6-1.75,8.68.24,1.13,4.83,1.85,7.46,1.91C698.74,260.05,708.58,259.92,718.41,259.92Z" />
            <path class="cls-2"
                d="M515.75,129.51h.66c7.68.06,8,.25,8,7.84,0,2.59,1.06,3.34,3.35,4.23,3.69,1.43,6.28,1.21,8.54-2.32,1.64-2.57,4.13-2.3,6.26-.54a71,71,0,0,1,6.66,6.32C551,146.9,551,149,549,150.79c-.57.51-1.12,1.05-1.69,1.56-3.6,3.24-3.89,5.2-1,9.07a4.7,4.7,0,0,0,2.77,1.4c1.61.29,3.28.21,4.91.36,2.42.22,3.81,1.52,3.84,4,0,2.84,0,5.69.07,8.54,0,2.46-1.26,3.61-3.6,3.73a16.78,16.78,0,0,1-3.61,0c-2.78-.45-4.09.62-5.47,3.17-1.91,3.54-1.2,5.58,1.72,7.93,4.49,3.61,4.47,5.32.65,9.64-5.92,6.69-6.61,6.8-12.71.38-2-2.07-3.75-1.68-5.87-.81s-4.57,1.57-4.44,4.82c.27,7.13.35,7.41-7.5,7.2h-.33c-8.35-.1-8.59-.18-8.64-8.38,0-3.06-2.13-3.15-3.95-3.87s-3.54-2-5.16.44c-4.58,6.84-7.17,5.35-11.9.07-.73-.81-1.57-1.52-2.32-2.32-1.79-1.89-1.88-3.85-.12-5.82.43-.49.9-1,1.35-1.43,3.71-3.85,3.61-3.81,1.47-8.48-1-2.1-2.22-3.06-4.51-2.73a19.46,19.46,0,0,1-3,.06c-3.75-.07-5-1.28-5.43-5.07a15.13,15.13,0,0,1-.08-1.64c0-9.8-1.07-10.08,8.71-9.74,2.46.08,3-1.66,3.76-3.4,2-4.87,2-4.86-1.77-8.31-3.36-3.05-3.52-4.87-.74-8.39.75-1,1.52-1.87,2.29-2.8,3.27-3.93,6.23-4,9.88-.33s5.9,3.89,10.26,1.21a3.21,3.21,0,0,0,1.09-1.74,6.4,6.4,0,0,0,.05-2C507.79,128.57,508.93,129.22,515.75,129.51Zm.77,25.48a16.19,16.19,0,0,0-16.32,16.2c0,7.7,7.89,15.42,15.84,15.45a16.13,16.13,0,0,0,16.29-16.14C532.33,162.12,525.06,155,516.52,155Z" />
        </g>
    </g>
</svg>