<svg id="Layer_1" data-name="Layer 1" xmlns="http://www.w3.org/2000/svg" viewBox="0 0 280 180">
    <style>
        path { fill: black; }
    </style>
    <path
        d="M4396.72,4392.9l-38.73-5c1.55-29.18,22.64-52.45,52.4-58,15.5-2.88,30.92-2.27,45.83,3.21,45.27,16.62,48.64,74.46,23,99.76a107.5,107.5,0,0,1-17.63,14.65c-12.95,8.2-22.86,17.63-19.24,35.17h-37.16c-.82-19.4-.78-38.67,15.78-53,7.55-6.52,15.89-12.11,23.62-18.44,7.31-6,10.9-13.78,9.73-23.38-1-8.13-4.83-14.45-12.22-18.31a30.72,30.72,0,0,0-43.68,17.41C4397.87,4388.74,4397.42,4390.51,4396.72,4392.9Z"
        transform="translate(-4221.83 -4320.89)" />
    <path
        d="M4352.25,4508.23l12.88-40.33H4338c-1.49,14.92-12.34,24.34-21.2,35-4.57,5.51-9,11.16-13.54,16.69-3.85,4.69-9.29,5.87-13.68,3.09-4.62-2.93-5.87-8.65-3.05-14.12.76-1.48,1.6-2.91,2.68-4.85-1.41-.34-2.58-.73-3.78-.9-15.8-2.29-26.58-12.29-30.24-27.84a6.4,6.4,0,0,0-2.95-3.9c-13.68-6.52-19.83-16.82-19.16-31.95a8.86,8.86,0,0,0-2.15-6c-12.87-13-12.57-38.9,4.41-49a6.25,6.25,0,0,0,2.23-3.92c.95-5,3-9.08,7.63-11.7a6.06,6.06,0,0,0,2.42-3.35c5.94-21.27,20.15-29.7,41.32-24.09.7-.92,1.53-1.91,2.24-3,9-13.66,27.71-16.82,38.64-8.55,1.05.8,3.64.23,5.2-.43,14.15-5.95,27.49-4.36,40.76,3.7l-6.48,5.88c-10.4-5.35-21-6.76-31.79-1.09.54,4.61,1.28,9,1.47,13.41a10,10,0,0,1-1.64,5.59,4.46,4.46,0,0,1-3.85,1.31c-1.2-.26-2.35-1.63-3.09-2.79-.46-.71-.15-1.94-.11-2.93.4-9.25-2.33-14.75-8.65-17.39-6.87-2.87-16-.55-21.42,5.48-2.89,3.22-4.48,6-1.56,10.78,5.47,9,1.6,20-7.12,22.93-3,1-6.27,1.61-7.67-2.08s1.14-5.22,4.48-6.15c4-1.11,5.32-5.23,3.44-9.79-2.39-5.8-9-9-16.73-8.2a21.52,21.52,0,0,0-18.65,18.85c4.16,2.63,8.33,5,12.18,7.79,2.43,1.76,4.07,4.48,1.54,7.25s-5,1.42-7.35-.75c-1.71-1.55-3.61-3.4-5.71-3.88-2.82-.65-6.93-1.26-8.62.23s-2.31,6.15-1.25,8.44c2.24,4.88,5.84,9.14,8.94,13.61a10,10,0,0,0,1.91,1.6c2.26,1.82,3.45,4.41,1,6.26-1.47,1.09-5.3,1.21-6.46.1-4.76-4.56-8.89-9.77-13.37-14.86-6.55,3.73-10.19,12.23-8.66,21.42s8.19,17.31,15.71,18.91c6.75,1.44,9.53-1,9.8-8,.07-1.57,1.8-4.24,2.9-4.31a6.55,6.55,0,0,1,5.1,2.62c3,5,.33,13.34-5.92,16.07-4.76,2.09-10.35,2.27-16.26,3.44-2.74,9.92,9.32,22.84,22.16,21.77a27.33,27.33,0,0,0,4.91-.88c5.92-1.64,6.45-2.55,5.35-8.52-.24-1.31-.92-2.92-.43-3.9,1-2,2.34-4.62,4.07-5.1,3-.82,4.11,1.72,4.45,4.58,1.34,11.22,7.61,18.57,18,21.34s20.12-.72,26.74-9.43c-2.59-3.08-5-6.22-7.78-9.08a5.27,5.27,0,0,0-3.68-1.07c-2.3.12-4.72,1.31-6.82.85-1.67-.36-4-2.4-4.12-3.9-.14-1.33,2.11-4.05,3.55-4.23,6.41-.79,10.78-3.57,13.38-9.67.59-1.4,3.66-1.73,5.59-2.56.75,1.82,1.84,3.58,2.14,5.46a4.82,4.82,0,0,1-1.45,3.6c-4.29,4-1.68,7,1.2,10a25.48,25.48,0,0,0,18.11,8.36c1.47.05,3.65-1.82,4.44-3.36q8.27-16,16-32.2c1.37-2.88,2.89-4.31,6.35-4.12,5.94.35,11.91.1,18.63.1-5,10.19-9.73,19.79-14.77,30.05h18.72l-43.44,58.05ZM4328,4476.09l-1.51-1.47c-2.29,1.92-5.32,3.4-6.71,5.83-3.93,6.83-9,12.26-16,15.87a5.83,5.83,0,0,0-2.47,2.18c-2.26,4.18-4.4,8.43-6.47,12.71a24,24,0,0,0-1.14,3.9l1.39.63Zm-51.37-7.18a15.79,15.79,0,0,0,1,1.89c1.49,1.68,3,3.35,4.52,5l-7.07-1.52a1,1,0,0,1-.4-.28c-3.46-3.47-7-1.84-10.87-.55,5.59,6.11,26.72,10.24,33.4,7.58-5.06-3.7-10.65-7.89-16.38-11.86C4280,4468.59,4278.44,4469,4276.64,4468.91Zm5,24c9.31,5.55,27.65-.58,31.07-10.51Zm4-6.56-18.38-4.53C4271.22,4488.63,4271.88,4488.79,4285.59,4486.33Z"
        transform="translate(-4221.83 -4320.89)" />
    <path
        d="M4325,4391.79v15.59c7.15,1.18,13.87,3.89,18.94,9.58a42.06,42.06,0,0,1,5.08,7.36c1.45,2.6,2.26,5.63-1.18,7.31s-5.05-.55-6.54-3.38c-5.34-10.17-15.79-14.67-26.93-11.76a26,26,0,0,0-17.48,14.44c-.29.6-.49,1.23-.75,1.84-1.2,2.8-3,4.5-6.23,3.1s-3.18-4.15-1.71-6.69c2.74-4.69,5.79-9.2,8.39-13.3-3.78-4-7.93-8.17-11.71-12.61-2-2.36-2.51-5.46.71-7.3s5.09.25,6.74,3c4.81,8.07,12.08,11.31,20.13,8.76a7,7,0,0,0,3.91-4.22c1.75-6.56-.22-10.61-5.92-14.42-1.76-1.18-3.84-2.65-4.53-4.46s.2-4.16.39-6.28c2.07.29,4.29.21,6.17,1,1.6.64,2.64,2.57,4.21,3.36,5.19,2.6,11.62-.25,13.66-6.07,1.07-3,2.18-6.16,6.09-4.68s3.08,5,1.84,8.06A19.64,19.64,0,0,1,4325,4391.79Z"
        transform="translate(-4221.83 -4320.89)" />
    <path
        d="M4424.79,4537c-11.54.1-20.47-8.47-20.62-19.78a20.54,20.54,0,1,1,41.08-.8A20.18,20.18,0,0,1,4424.79,4537Z"
        transform="translate(-4221.83 -4320.89)" />
</svg>