<svg xmlns="http://www.w3.org/2000/svg" viewBox="0 0 494 440.51"><g id="Layer_2" data-name="Layer 2"><g id="Layer_1-2" data-name="Layer 1"><path d="M367.42,48.42c0-11.74.06-22.63,0-33.52,0-5.48,1.18-10.36,6.35-13.11,5.62-3,11-2.07,16.22,1.51q47.3,32.47,94.67,64.84c11.07,7.59,11.83,18.84,1.29,27-31.26,24.18-62.76,48-94.14,72.07-5.2,4-10.58,5.08-16.63,2-6.22-3.14-7.74-8.43-7.6-14.89.21-9.44.05-18.89.05-29.13-12.55.78-25.43-3.79-34.79,8.16-13.07,16.68-26.08,33.41-39.29,50q-42.33,53.14-84.83,106.15Q176.88,329.28,145.05,369c-8.52,10.67-18.23,19.66-32.1,22.49A83.17,83.17,0,0,1,97,392.93c-16.49.14-33,0-49.49-.06-11.46-.07-17.79-6.45-17.83-18q-.09-24.44,0-48.88c0-9.76,6.33-16.24,16.12-16.33,13.2-.13,26.41-.34,39.6.05,10.48.3,18.16-4.3,24.44-12Q160.12,235.83,210.32,174,252.58,122,294.9,70c11.41-14,26-21.75,44.4-21.62C348.35,48.47,357.41,48.42,367.42,48.42Z"/><path d="M366.31,309.62c0-10.31,0-19.75,0-29.19,0-5.68,1.7-10.45,7.14-13.31s10.28-1.64,15,1.7c32.64,23.31,65.35,46.52,97.89,70,10,7.18,10.33,17.52.58,25.34-16.38,13.11-33.21,25.66-49.9,38.38-14.24,10.85-28.46,21.72-42.87,32.32a30.69,30.69,0,0,1-10.9,5.37c-8.27,1.9-15.38-4.93-15.57-14.66-.22-10.69,0-21.39,0-33-8,0-15.54-.43-23.05.08-20.38,1.4-36-6.11-48.47-22.47-17.7-23.24-36.4-45.72-54.6-68.58-5.53-6.95-5.55-12.66,0-19.5q14.34-17.79,29-35.32c6.21-7.47,15.49-7.08,21.59.76,13.65,17.54,27.43,35,40.81,52.71,5,6.66,10.77,10.38,19.34,9.53C356.79,309.24,361.51,309.62,366.31,309.62Z"/><path d="M63.73,48.42c13.4,0,26.81.14,40.22,0,16-.22,28.61,6.36,38.58,18.48Q170.81,101.2,199,135.61c7,8.5,7.3,11.36.56,20-9.53,12.16-19.17,24.24-29.12,36-8.11,9.63-14.29,9.08-22.42-1.16-14.34-18-28.8-36-43.06-54.09-4.34-5.52-9.78-7.63-16.65-7.59-23.3.15-46.61.08-69.92.06-11.78,0-17.79-5.36-18.06-17C-.08,95.92-.07,80,.17,64.16c.15-9.83,6.94-15.53,18.38-15.68,15.06-.19,30.12,0,45.18,0Z"/></g></g></svg>