<svg xmlns="http://www.w3.org/2000/svg" viewBox="0 0 333.88 417.77">
    <g id="Layer_2" data-name="Layer 2">
        <g id="Layer_1-2" data-name="Layer 1">
            <path
                d="M0,246.16C0,206,0,165.83.06,125.66.12,103.93,13.33,84.28,33.59,78c8.64-2.66,18.32-2.11,27.55-2.5,1.27-.06,3.68,2.8,3.82,4.46.47,5.62.17,11.31.15,17,0,3.58-1.93,5-5.41,4.92-4.49,0-9.11-.46-13.45.43C34.57,104.71,27,114.66,27,126.87q0,117.26,0,234.5c0,18.07,9.94,28.18,28,28.2q78,.1,156,.06c22.5,0,45,.05,67.5,0,18,0,28.49-10.62,28.49-28.56q0-115.74,0-231.49c0-17.32-10.29-27.69-27.44-27.72-11.49,0-11.82,1.6-11.76-11.64,0-3.33.08-6.67,0-10-.08-3.1,1.6-5,4.39-4.95,12.07.25,24.18-.22,35.29,6.36,18,10.69,26.36,26.49,26.37,47.08q0,108.5-.07,217c0,10.78.42,21.83-1.75,32.26-4.75,22.86-26.09,39.68-49.3,39.72q-115.26.21-230.5-.11C22.67,417.46,0,394.13,0,364.66Q0,305.41,0,246.16Z" />
            <path
                d="M117.9,62.88C112.54,28.37,133.57,2,164.49.11c16.73-1,30.87,5.26,41.68,18.39C216.8,31.41,219,46.47,217,62.87c7.54,0,14.67,0,21.8,0,7.59,0,13,5.05,13.14,12.65q.3,16,0,32A13.56,13.56,0,0,1,238,120.87q-70.24.09-140.49,0c-9.23,0-14.37-5.36-14.44-14.71q-.1-14.5,0-29c.06-9.57,4.91-14.3,14.49-14.31C104.19,62.87,110.83,62.88,117.9,62.88Z" />
            <path
                d="M164.87,139.81c24,0,46,6.51,65.49,20.87,4.11,3,4.17,3.8.56,7.44q-4,4.08-8.11,8.11c-3.9,3.84-4,3.93-8.43.93a82.6,82.6,0,0,0-30.13-12.56C133,154.07,87.1,185.64,76.9,233.5c-6.06,28.41-1.27,55.13,16.23,78.72,15.11,20.37,35.78,31.78,60.93,34.85,24.56,3,46.93-2.9,66.64-17.84s31.44-35.05,34.83-59.81a102.5,102.5,0,0,0,.08-28.53,6.64,6.64,0,0,1,1.51-4.79c4.62-5,9.44-9.81,14.34-14.54,2.77-2.68,3.6-2.38,4.55,1.42,11.63,46.66-1.9,95-42.47,125.29-16.9,12.63-36,19.7-57,21.83-46.3,4.68-91.92-19.11-112-60.31-20.5-42-19.14-83.63,8.17-122.47,18.27-26,43.78-41.65,75.42-46.73a53,53,0,0,1,6.39-.75C157.94,139.71,161.4,139.81,164.87,139.81Z" />
            <path
                d="M156.56,267.11c17.39-16.88,34.93-33.62,52.14-50.69,14.58-14.46,28.78-29.31,43.14-44,4.21-4.3,9.27-6.46,15.22-5.05,10.88,2.59,14.26,15.5,6.22,23.72-9.1,9.31-18.37,18.44-27.55,27.67Q206.81,257.89,167.92,297c-4.32,4.36-9.27,6.36-15.18,4A18.17,18.17,0,0,1,147,296.9c-12.21-12.11-24.28-24.35-36.47-36.48-4.54-4.53-7.79-9.27-5.25-16.12,2.95-7.91,14.67-13.27,22.86-4.9,8.52,8.7,17.15,17.3,25.75,25.93,1,1,2,1.94,3.07,2.91Z" />
        </g>
    </g>
</svg>