<svg xmlns="http://www.w3.org/2000/svg" viewBox="0 0 696.98 687.43"><g id="Layer_2" data-name="Layer 2"><g id="Layer_1-2" data-name="Layer 1"><path d="M0,343.13c0-49.5,9.46-97.11,29.48-142.4,13.33-30.18,31.6-57.31,53.43-82.06A346.15,346.15,0,0,1,185,39,352.18,352.18,0,0,1,289.61,4.78,329,329,0,0,1,352.72.12c75.72,2.19,145.41,23.14,206.75,68.47C620,113.27,662.5,171,683.41,243.73a356,356,0,0,1,12.84,76.49C699.9,378.79,690,434.83,665.13,488s-60.67,97.59-107.94,132.54c-39,28.84-82.09,48.86-129.66,58.85a378.33,378.33,0,0,1-64.77,7.79,398.19,398.19,0,0,1-69.22-3.42c-46-6.42-89.06-21.25-128.79-45.38C94.6,595.77,46.54,535.2,19.07,458.12,5.83,421-.1,382.54,0,343.13ZM346.18,653.44c34.29,0,67.93-4.36,100.74-14.55,63-19.55,114.68-55.31,154.17-108.17,32.61-43.65,53.39-92.25,60.33-146.67a318.26,318.26,0,0,0-1.7-93.48,297.7,297.7,0,0,0-60.47-136.64c-30.59-38.85-68.68-68.38-113.36-89.46-39.44-18.61-81.1-28.36-124.55-30.37a315.56,315.56,0,0,0-79.42,6.19C222,52.81,169.63,80.15,125.55,122.41c-59.71,57.25-89.1,128.36-92.31,210.51a296.63,296.63,0,0,0,14,102.78C67,497.3,100.58,549.35,152.55,589,209.81,632.7,274.62,653.09,346.18,653.44Z"/><path d="M249.79,413.31V276.88a27.43,27.43,0,0,0-3.72-.48q-66.24,0-132.48,0c-1.67,0-3.34,0-5-.07-9.08-.27-14.65-6-14.52-14.8.12-8.32,6.54-14.46,15.26-14.46q67.74,0,135.48.07h5.28v-6.05q0-72,0-144A14,14,0,0,1,260.85,83.3c6.58-1.8,13.77.91,16.69,6.82A17.93,17.93,0,0,1,279,97.8q.14,71.49.07,143v6.15h139v-5.88q0-71.49.07-143c0-7.56,4.2-13,11-14.78,6.11-1.57,13.36,1.06,16.23,6.88,1.51,3.09,1.79,7,1.79,10.58q.17,69.75.08,139.49v6.9h12.45q63.5,0,127,0c10.87,0,18.22,10.45,14.38,20.28A12.9,12.9,0,0,1,589.27,276c-7.47.48-15,.4-22.48.4q-57.74,0-115.48-.06c-1.13,0-2.26.18-3.7.3V413.59h5.55q66.25,0,132.49,0c6.73,0,12.29,1.92,15.26,8.23,4.3,9.13-2.71,19.07-13.38,19.09-28.33.08-56.67.05-85,.06H447.29c0,2,0,3.76,0,5.5q0,70.5-.06,141c0,9.24-4.62,14.79-12.63,15.62-9.82,1-16.46-5.33-16.48-16q-.09-42.75,0-85.5,0-27.74,0-55.49v-4.81h-139v5.43q0,70.25,0,140.49c0,9.81-6.13,16.27-15.1,16.14-8.26-.12-13.86-6-13.94-15-.14-15.33-.08-30.66-.09-46q0-48.5,0-97V441h-6.31q-67.25,0-134.48,0c-10.38,0-17-9-13.87-18.61,1.83-5.65,6.67-8.79,13.59-8.79h136C246.27,413.53,247.74,413.4,249.79,413.31Zm168,0V276.77H279.33V413.28Z"/><path d="M177.72,290.56c30.39-.49,56.65,26.61,55.54,58.72-1,29.41-27.31,54.42-58,53.47-30.16-.93-55.09-24.51-54.24-58.21C121.82,314.71,147.38,290.07,177.72,290.56Zm-.83,27.16a29.2,29.2,0,0,0-28.75,29.13,28.88,28.88,0,0,0,28.86,29c15.65.08,29.09-13.24,29.07-28.82C206.05,331,192.75,317.65,176.89,317.72Z"/><path d="M351.93,462.08c30.38-.49,56.65,26.61,55.54,58.72-1,29.41-27.32,54.41-58,53.47-30.16-.93-55.1-24.51-54.24-58.21C296,486.22,321.59,461.59,351.93,462.08Zm-.83,27.16a29.2,29.2,0,0,0-28.75,29.13,28.88,28.88,0,0,0,28.86,29c15.65.08,29.09-13.24,29.07-28.82C380.26,502.52,367,489.17,351.1,489.24Z"/><path d="M351.93,114.12c30.38-.49,56.65,26.61,55.54,58.72-1,29.41-27.32,54.42-58,53.47-30.16-.93-55.1-24.51-54.24-58.21C296,138.27,321.59,113.63,351.93,114.12Zm-.83,27.16a29.2,29.2,0,0,0-28.75,29.13,28.88,28.88,0,0,0,28.86,29c15.65.08,29.09-13.24,29.07-28.82C380.26,154.56,367,141.21,351.1,141.28Z"/><path d="M520.5,328.21c9.83-9.86,20.18-20,30.2-30.44,3.44-3.58,5.78-3.41,8.87.18a132.39,132.39,0,0,0,10.48,10.71c3.11,2.88,3.21,5,0,8-9.16,8.73-18,17.79-26.95,26.74-1.4,1.39-2.73,2.84-4.48,4.68l30.93,30.28-18.23,20.13-33.44-31.68c-4.85,5.09-10.27,10.86-15.8,16.53-4.18,4.29-8.59,8.36-12.73,12.69-2.13,2.23-3.75,2.06-5.78-.06-4-4.21-8-8.5-12.36-12.36-3.39-3-3.57-5-.14-8.3,9.74-9.32,19.12-19,29.46-29.38L466.26,314.2l18.53-19.86Z"/><path d="M485.12,562l-19.37-18.83,35-34.48-35.46-33.8c6.56-5.92,12.34-11.17,18.16-16.36,2.89-2.58,4.42.16,6.11,1.76,9.92,9.36,19.8,18.76,30.09,28.51l33-32.59c6.28,6.2,12.12,11.82,17.67,17.71.5.54-.48,3.27-1.48,4.29-9.31,9.52-18.77,18.89-28.18,28.31-.92.93-1.79,1.91-2.79,3l32.35,31.67-20,19.89-32.24-33.19Z"/><path d="M127.18,148c6.34-6.51,11.37-11.59,16.3-16.77,2.64-2.79,4.78-2.61,7.47.16,8.92,9.16,18,18.14,26.94,27l25.75-25.25c6.62-6.48,6.64-6.49,13-.16,3.19,3.16,6.19,6.53,9.54,9.52,2.78,2.47,2.77,4.19.05,6.84-9.53,9.28-18.82,18.81-29,29.08,8.83,8.58,17.6,17.13,26.42,25.65,7.42,7.19,7.4,7.12.31,14.55-3.68,3.85-7.15,7.89-11.53,12.74L180.05,196.6c-10.22,10.5-19.22,20-28.53,29.22-8.6,8.49-6.63,8.11-15-.47-1.75-1.79-3.34-3.73-5.17-5.42s-3.88-3.15-6.18-5l36.12-34.39Z"/><path d="M348.67,326.75c10.15-9.85,20.05-19.24,29.67-28.91,3.17-3.19,5.32-3.55,8.38.06A119.21,119.21,0,0,0,398,309.24c3.17,2.86,2.72,4.76-.21,7.61-10.25,10-20.22,20.2-30.52,30.57L399,378.54c-6,6.39-11.64,12.25-17.17,18.17-2.35,2.51-3.8.59-5.31-.94q-12.66-12.78-25.26-25.6c-1.15-1.19-2.11-2.56-3.73-4.54L314.89,399.3l-19.64-19.91,34.22-32.78c-10.39-10.23-19.69-19.72-29.4-28.77-3.69-3.44-3.27-5.62.15-8.64,3.86-3.41,7.39-7.21,11-10.84,4.83-4.8,4.84-4.81,9.74.21q13.42,13.74,26.85,27.51A6.08,6.08,0,0,0,348.67,326.75Z"/></g></g></svg>