<svg xmlns="http://www.w3.org/2000/svg" viewBox="0 0 678 679.14"><g id="Layer_2" data-name="Layer 2"><g id="Layer_1-2" data-name="Layer 1"><path d="M338.5,221.18q124.25,0,248.49,0c4.46,0,9.11-.1,13.35,1.05,12.13,3.28,19.38,13.76,19.42,27.5q.12,52.25.06,104.5,0,28.25,0,56.49c0,18.79-11.12,29.76-30.34,29.76q-152.73,0-305.48,0c-65.5,0-131-.27-196.49.15C70.65,440.82,56.76,430,56.91,410c.39-53.83.12-107.66.14-161.49,0-13.59,6.28-22.63,18.61-26.29a37.2,37.2,0,0,1,10.35-1q126.25-.08,252.49,0Zm99.33,28.65c0,11.77.08,23.08,0,34.39-.06,5.64-4,9.3-9.5,9.35s-9.24-3.68-9.42-9.39c-.11-3.33,0-6.67,0-10V249.9H397v5.73q0,28.49,0,57c0,4.56-1.94,7.75-6.48,8.78s-8.88,0-11.12-4.44c-1.12-2.25-1.32-5.15-1.33-7.76,0-18,.08-36,.12-54,0-1.76-.16-3.51-.24-5.21h-21c0,11.55.08,22.7,0,33.84-.06,6.21-3.65,9.71-9.57,9.77-5.37.05-9.1-3.54-9.54-9.38-.21-2.82-.16-5.66-.16-8.49,0-8.6,0-17.21,0-25.75H316c0,11.72,0,23,0,34.35q0,27.75-.07,55.5c0,4.58-2.25,7.56-6.72,8.65-4.82,1.17-9.47-.83-11.24-5.15a18.23,18.23,0,0,1-1.09-6.79q-.12-40.24-.06-80.5V249.9H275.18v4.16c0,9.83.08,19.67-.09,29.5-.12,6.74-3.65,10.27-9.64,10.18-5.66-.09-8.94-3.59-9-10.21-.15-9.5,0-19-.07-28.5,0-1.73-.25-3.47-.38-5.09H234.73v5.81q0,27.51,0,55c0,7.06-3.39,10.88-9.5,10.86-6,0-9.39-4-9.39-10.94q0-27.75,0-55.49V250H194.23c0,5.74,0,11.06,0,16.38,0,5.49,0,11-.11,16.49-.18,7.21-3.48,10.8-9.64,10.7s-9.34-3.8-9.39-11c-.07-8.83.06-17.67,0-26.5,0-2.08-.29-4.16-.44-6.23H152.39c0,4.91,0,9.54,0,14.17.05,15.67.16,31.33.14,47,0,7.39-4.4,11.34-11.32,10.48-5.37-.68-7.79-4.18-7.79-11.39q0-27.24,0-54.5v-5.75H85.22v161.5H592.79V249.86h-32v5.67c0,18.5.07,37,0,55.5a13,13,0,0,1-1.65,6.55c-2.52,4.06-6.76,5-11,3.61s-6.29-4.58-6.28-9.2c.07-19,0-38,0-57,0-1.74-.15-3.49-.22-5.05H519.86c0,11.5,0,22.64,0,33.78,0,6.28-3.59,9.91-9.38,9.88s-9.4-3.8-9.56-9.85c-.1-3.83,0-7.67,0-11.5V249.88h-23v5.65c0,18.5,0,37,0,55.5,0,7.38-3,10.62-9.48,10.67-6.05.05-9.51-3.8-9.53-10.77q0-27.75,0-55.5v-5.6Z"/><path d="M608.83,111.77l38.83-36C657.78,127,667.77,177.57,678,229.38L541.55,170.14l35.18-32.54c-10.27-8.42-20-16.85-30.22-24.7C506.09,81.77,461.18,60,411.33,48.67c-32.53-7.36-65.47-9.26-98.68-6.7-67,5.15-126.46,29.85-179.55,70.43A361,361,0,0,0,36.3,224.6c-4.13,7.4-9.23,13.07-18.48,13C5.4,237.44-3.52,225.59,1.36,214a256.2,256.2,0,0,1,18.28-35.28C62.77,109.26,122.85,59.51,198,27.77A355.49,355.49,0,0,1,290,3c30.23-4,60.48-3.85,90.66-.68,56.53,5.94,109,24.11,157.38,54a399.42,399.42,0,0,1,68.33,53.32C607,110.38,607.83,111,608.83,111.77Z"/><path d="M73.14,568.28,30.28,605.92.75,449.73,141,510.56,102.9,544.38c25.82,23.41,53.34,43.49,84.34,58.73A340.76,340.76,0,0,0,288.9,634.89a336.18,336.18,0,0,0,85.05,1.4q99.81-10.8,177.7-73.74C586.89,534,616.17,500.18,638,460.19c1.75-3.21,3.23-6.56,5-9.77a18.36,18.36,0,0,1,22.61-8.51c8.8,3.43,14.15,12.93,10.6,21.81a228,228,0,0,1-15.91,32.51C618.39,566,559.64,616.77,485.32,649.45a346.6,346.6,0,0,1-107.95,27.84C320.43,682.6,264.87,676.63,211,657,158.67,638,112.87,608.52,73.14,568.28Z"/></g></g></svg>