<svg xmlns="http://www.w3.org/2000/svg" viewBox="0 0 426.8 424.64"><g id="Layer_2" data-name="Layer 2"><g id="Layer_1-2" data-name="Layer 1"><path d="M101.69,0c54,.65,94.81,41.3,94.67,95.2a185.85,185.85,0,0,1-2.48,32c-1.75,9.78,1.13,16.59,8.06,23.15,31.63,29.93,63,60.13,94.44,90.24Q353,294.77,409.54,349c8.85,8.54,15.78,18.29,17.1,31.29,2.43,23.84-22.76,49.14-53.39,43.49-13.4-2.48-22.8-10.74-31.24-20.59Q272.65,322.28,203.23,241.4c-8.52-9.89-18.33-18.66-26.71-28.65-14.42-17.18-32-19.09-52.57-14.16-64,15.35-111.13-30.18-121.14-74.32C-.28,110.63,0,96.09,0,82c0-4.29,3.68-10.42,7.35-12.19,2.47-1.18,8.76,3,11.88,6.24C32.79,90,45.41,104.77,59.07,118.57c13,13.13,23.25,13.07,37.05.73,5.17-4.61,10.37-9.51,14.27-15.16C122.6,86.44,120,63.79,104,47c-8.41-8.8-17.53-16.93-26.22-25.48S70.81,5.36,82.83,2.38C88.94.86,95.39.75,101.69,0ZM382,363.16a16.41,16.41,0,0,0-16.53,17.21c.23,8.85,7.85,16.07,17,16.08,9.78,0,16.49-7.13,16.19-17.23C398.36,369.77,391.37,363,382,363.16Z"/><path d="M18.52,376.14c-.87-16.93,7.53-31.38,19.73-43.45q51.32-50.78,103.54-100.61c10.07-9.64,18-9,27.84,1q19.8,20.16,39.08,40.83c9.85,10.59,10.09,18.81,0,28.73-36.59,36-73.1,72.05-110.44,107.24-21,19.75-49.4,19.25-67.94.75C22,402.37,18.25,391.82,18.52,376.14Z"/><path d="M398.1,48.23c-1.09,2.54-2.4,7.05-4.79,10.89-8.1,13-16.32,25.94-25.11,38.48-2,2.89-6.42,4.21-9.86,6-4.89,2.51-11.09,3.61-14.7,7.3-22.72,23.21-44.81,47-67.24,70.51-10.31,10.81-17.77,10.33-27.1-1.29-6.08-7.58-5.17-14.21,2.81-23,20.41-22.56,41.1-44.89,61-67.92,16.38-19,31.55-39,47.7-58.24,5-5.9,11.62-9.56,20.05-6.06S397.82,38.77,398.1,48.23Z"/></g></g></svg>